<mxfile host="app.diagrams.net" modified="2024-07-01T11:14:46.800Z" agent="Mozilla/5.0 (Windows NT 10.0; Win64; x64) AppleWebKit/537.36 (KHTML, like Gecko) Chrome/125.0.0.0 Safari/537.36" etag="T1GWY_CtD-g_U7Ilroig" version="24.6.1" type="github" pages="5">
  <diagram name="コンテキスト図" id="VEWJrtm_3uARm7sQ_yi-">
    <mxGraphModel dx="1259" dy="662" grid="1" gridSize="10" guides="1" tooltips="1" connect="1" arrows="1" fold="1" page="1" pageScale="1" pageWidth="827" pageHeight="1169" math="0" shadow="0">
      <root>
        <mxCell id="0" />
        <mxCell id="1" parent="0" />
        <mxCell id="l9pXEmOARweMNlNVeTEp-22" value="" style="rounded=1;whiteSpace=wrap;html=1;fillColor=none;strokeWidth=3;strokeColor=#FF0000;dashed=1;" vertex="1" parent="1">
          <mxGeometry x="338" y="340" width="140" height="210" as="geometry" />
        </mxCell>
        <mxCell id="l9pXEmOARweMNlNVeTEp-1" value="PG" style="shape=umlActor;verticalLabelPosition=bottom;verticalAlign=top;html=1;outlineConnect=0;fontStyle=1;fontSize=15;" vertex="1" parent="1">
          <mxGeometry x="110" y="290" width="30" height="60" as="geometry" />
        </mxCell>
        <mxCell id="l9pXEmOARweMNlNVeTEp-2" value="SE" style="shape=umlActor;verticalLabelPosition=bottom;verticalAlign=top;html=1;outlineConnect=0;fontStyle=1;fontSize=15;" vertex="1" parent="1">
          <mxGeometry x="680" y="290" width="30" height="60" as="geometry" />
        </mxCell>
        <mxCell id="l9pXEmOARweMNlNVeTEp-4" value="&lt;font style=&quot;font-size: 15px;&quot;&gt;Google&lt;/font&gt;&lt;div style=&quot;font-size: 15px;&quot;&gt;&lt;font style=&quot;font-size: 15px;&quot;&gt;ドライブ&lt;/font&gt;&lt;/div&gt;" style="rounded=1;whiteSpace=wrap;html=1;fontStyle=1;fillColor=#dae8fc;strokeColor=#6c8ebf;" vertex="1" parent="1">
          <mxGeometry x="348" y="120" width="120" height="60" as="geometry" />
        </mxCell>
        <mxCell id="l9pXEmOARweMNlNVeTEp-5" value="&lt;font style=&quot;font-size: 15px;&quot;&gt;GitHub&lt;/font&gt;" style="rounded=1;whiteSpace=wrap;html=1;fontStyle=1;fillColor=#dae8fc;strokeColor=#6c8ebf;" vertex="1" parent="1">
          <mxGeometry x="348" y="240" width="120" height="60" as="geometry" />
        </mxCell>
        <mxCell id="l9pXEmOARweMNlNVeTEp-6" value="&lt;span style=&quot;font-size: 15px;&quot;&gt;Slack&lt;/span&gt;" style="rounded=1;whiteSpace=wrap;html=1;fontStyle=1;fillColor=#ffe6cc;strokeColor=#d79b00;" vertex="1" parent="1">
          <mxGeometry x="348" y="360" width="120" height="60" as="geometry" />
        </mxCell>
        <mxCell id="l9pXEmOARweMNlNVeTEp-7" value="&lt;span style=&quot;font-size: 15px;&quot;&gt;&amp;nbsp;エクセル&lt;/span&gt;" style="rounded=1;whiteSpace=wrap;html=1;fontStyle=1;fillColor=#ffe6cc;strokeColor=#d79b00;" vertex="1" parent="1">
          <mxGeometry x="348" y="480" width="120" height="60" as="geometry" />
        </mxCell>
        <mxCell id="l9pXEmOARweMNlNVeTEp-10" value="&lt;font color=&quot;#ff0000&quot; style=&quot;font-size: 15px;&quot;&gt;設計書を閲覧&lt;/font&gt;" style="endArrow=none;html=1;rounded=0;entryX=0;entryY=0.5;entryDx=0;entryDy=0;" edge="1" parent="1" target="l9pXEmOARweMNlNVeTEp-4">
          <mxGeometry x="0.4823" y="40" width="50" height="50" relative="1" as="geometry">
            <mxPoint x="140" y="310" as="sourcePoint" />
            <mxPoint x="190" y="260" as="targetPoint" />
            <mxPoint x="1" as="offset" />
          </mxGeometry>
        </mxCell>
        <mxCell id="l9pXEmOARweMNlNVeTEp-11" value="&lt;div style=&quot;font-size: 15px;&quot;&gt;&lt;font style=&quot;font-size: 15px;&quot;&gt;&lt;br&gt;&lt;/font&gt;&lt;/div&gt;&lt;div style=&quot;font-size: 15px;&quot;&gt;&lt;font style=&quot;font-size: 15px;&quot; color=&quot;#ff0000&quot;&gt;設計書を保存&lt;/font&gt;&lt;/div&gt;" style="endArrow=none;html=1;rounded=0;entryX=1;entryY=0.5;entryDx=0;entryDy=0;" edge="1" parent="1" source="l9pXEmOARweMNlNVeTEp-2" target="l9pXEmOARweMNlNVeTEp-4">
          <mxGeometry x="0.6857" y="-31" width="50" height="50" relative="1" as="geometry">
            <mxPoint x="150" y="320" as="sourcePoint" />
            <mxPoint x="358" y="160" as="targetPoint" />
            <mxPoint as="offset" />
          </mxGeometry>
        </mxCell>
        <mxCell id="l9pXEmOARweMNlNVeTEp-13" value="&lt;font color=&quot;#ff0000&quot; style=&quot;font-size: 15px;&quot;&gt;PRを投げる&lt;/font&gt;" style="endArrow=none;html=1;rounded=0;entryX=0;entryY=0.5;entryDx=0;entryDy=0;exitX=1;exitY=0.3333333333333333;exitDx=0;exitDy=0;exitPerimeter=0;" edge="1" parent="1" source="l9pXEmOARweMNlNVeTEp-1" target="l9pXEmOARweMNlNVeTEp-5">
          <mxGeometry x="0.3695" y="13" width="50" height="50" relative="1" as="geometry">
            <mxPoint x="150" y="310" as="sourcePoint" />
            <mxPoint x="358" y="160" as="targetPoint" />
            <mxPoint as="offset" />
          </mxGeometry>
        </mxCell>
        <mxCell id="l9pXEmOARweMNlNVeTEp-14" value="&lt;font color=&quot;#ff0000&quot; style=&quot;font-size: 15px;&quot;&gt;コードレビュー&lt;/font&gt;" style="endArrow=none;html=1;rounded=0;" edge="1" parent="1">
          <mxGeometry x="0.2823" y="-25" width="50" height="50" relative="1" as="geometry">
            <mxPoint x="680" y="310" as="sourcePoint" />
            <mxPoint x="470" y="270" as="targetPoint" />
            <mxPoint as="offset" />
          </mxGeometry>
        </mxCell>
        <mxCell id="l9pXEmOARweMNlNVeTEp-16" value="&lt;font color=&quot;#ff0000&quot; style=&quot;font-size: 15px;&quot;&gt;質問・相談&lt;/font&gt;" style="endArrow=none;html=1;rounded=0;entryX=0;entryY=0.5;entryDx=0;entryDy=0;" edge="1" parent="1" target="l9pXEmOARweMNlNVeTEp-6">
          <mxGeometry x="0.3695" y="13" width="50" height="50" relative="1" as="geometry">
            <mxPoint x="140" y="310" as="sourcePoint" />
            <mxPoint x="340" y="390" as="targetPoint" />
            <mxPoint as="offset" />
          </mxGeometry>
        </mxCell>
        <mxCell id="l9pXEmOARweMNlNVeTEp-19" value="&lt;font color=&quot;#ff0000&quot;&gt;&lt;span style=&quot;font-size: 15px;&quot;&gt;レビューコメント&lt;/span&gt;&lt;/font&gt;" style="endArrow=none;html=1;rounded=0;exitX=0;exitY=0.3333333333333333;exitDx=0;exitDy=0;exitPerimeter=0;entryX=1;entryY=0.5;entryDx=0;entryDy=0;" edge="1" parent="1" source="l9pXEmOARweMNlNVeTEp-2" target="l9pXEmOARweMNlNVeTEp-6">
          <mxGeometry x="0.2823" y="-25" width="50" height="50" relative="1" as="geometry">
            <mxPoint x="690" y="320" as="sourcePoint" />
            <mxPoint x="480" y="280" as="targetPoint" />
            <mxPoint as="offset" />
          </mxGeometry>
        </mxCell>
        <mxCell id="l9pXEmOARweMNlNVeTEp-20" value="&lt;font color=&quot;#ff0000&quot;&gt;&lt;span style=&quot;font-size: 15px;&quot;&gt;タスク管理・完了登録&lt;/span&gt;&lt;/font&gt;" style="endArrow=none;html=1;rounded=0;entryX=0;entryY=0.5;entryDx=0;entryDy=0;" edge="1" parent="1" target="l9pXEmOARweMNlNVeTEp-7">
          <mxGeometry x="0.2221" y="-25" width="50" height="50" relative="1" as="geometry">
            <mxPoint x="140" y="310" as="sourcePoint" />
            <mxPoint x="358" y="400" as="targetPoint" />
            <mxPoint as="offset" />
          </mxGeometry>
        </mxCell>
        <mxCell id="l9pXEmOARweMNlNVeTEp-21" value="&lt;font color=&quot;#ff0000&quot;&gt;&lt;span style=&quot;font-size: 15px;&quot;&gt;全体の進捗チェック&lt;/span&gt;&lt;/font&gt;" style="endArrow=none;html=1;rounded=0;entryX=1;entryY=0.5;entryDx=0;entryDy=0;" edge="1" parent="1" target="l9pXEmOARweMNlNVeTEp-7">
          <mxGeometry x="0.2582" y="19" width="50" height="50" relative="1" as="geometry">
            <mxPoint x="680" y="310" as="sourcePoint" />
            <mxPoint x="478" y="400" as="targetPoint" />
            <mxPoint y="1" as="offset" />
          </mxGeometry>
        </mxCell>
      </root>
    </mxGraphModel>
  </diagram>
  <diagram id="wb7pBMWzWWOsdM9AZOug" name="ユースケース図">
    <mxGraphModel dx="1049" dy="552" grid="1" gridSize="10" guides="1" tooltips="1" connect="1" arrows="1" fold="1" page="1" pageScale="1" pageWidth="827" pageHeight="1169" math="0" shadow="0">
      <root>
        <mxCell id="0" />
        <mxCell id="1" parent="0" />
        <mxCell id="jHHFf4LGI2qsn1g1W1yF-20" style="rounded=0;orthogonalLoop=1;jettySize=auto;html=1;entryX=0;entryY=0.5;entryDx=0;entryDy=0;fontFamily=Helvetica;fontSize=12;fontColor=default;fontStyle=1;autosize=0;resizable=1;endArrow=none;endFill=0;" edge="1" parent="1" source="fwOib0TPbmNcEEenDMgU-1" target="jHHFf4LGI2qsn1g1W1yF-18">
          <mxGeometry relative="1" as="geometry" />
        </mxCell>
        <mxCell id="jHHFf4LGI2qsn1g1W1yF-21" style="rounded=0;orthogonalLoop=1;jettySize=auto;html=1;entryX=0;entryY=0.5;entryDx=0;entryDy=0;fontFamily=Helvetica;fontSize=12;fontColor=default;fontStyle=1;autosize=0;resizable=1;endArrow=none;endFill=0;" edge="1" parent="1" source="fwOib0TPbmNcEEenDMgU-1" target="jHHFf4LGI2qsn1g1W1yF-19">
          <mxGeometry relative="1" as="geometry" />
        </mxCell>
        <mxCell id="jHHFf4LGI2qsn1g1W1yF-28" style="rounded=0;orthogonalLoop=1;jettySize=auto;html=1;entryX=0;entryY=0.5;entryDx=0;entryDy=0;fontFamily=Helvetica;fontSize=12;fontColor=default;fontStyle=1;autosize=0;resizable=1;endArrow=none;endFill=0;" edge="1" parent="1" source="fwOib0TPbmNcEEenDMgU-1" target="jHHFf4LGI2qsn1g1W1yF-26">
          <mxGeometry relative="1" as="geometry" />
        </mxCell>
        <mxCell id="fwOib0TPbmNcEEenDMgU-1" value="PG" style="shape=umlActor;verticalLabelPosition=bottom;verticalAlign=top;html=1;outlineConnect=0;fontStyle=1;fontSize=15;" vertex="1" parent="1">
          <mxGeometry x="110" y="290" width="30" height="60" as="geometry" />
        </mxCell>
        <mxCell id="jHHFf4LGI2qsn1g1W1yF-22" style="rounded=0;orthogonalLoop=1;jettySize=auto;html=1;entryX=1;entryY=0.5;entryDx=0;entryDy=0;fontFamily=Helvetica;fontSize=12;fontColor=default;fontStyle=1;autosize=0;resizable=1;endArrow=none;endFill=0;" edge="1" parent="1" source="fwOib0TPbmNcEEenDMgU-2" target="jHHFf4LGI2qsn1g1W1yF-11">
          <mxGeometry relative="1" as="geometry" />
        </mxCell>
        <mxCell id="jHHFf4LGI2qsn1g1W1yF-23" style="rounded=0;orthogonalLoop=1;jettySize=auto;html=1;fontFamily=Helvetica;fontSize=12;fontColor=default;fontStyle=1;autosize=0;resizable=1;endArrow=none;endFill=0;" edge="1" parent="1" source="fwOib0TPbmNcEEenDMgU-2" target="jHHFf4LGI2qsn1g1W1yF-16">
          <mxGeometry relative="1" as="geometry" />
        </mxCell>
        <mxCell id="jHHFf4LGI2qsn1g1W1yF-24" style="rounded=0;orthogonalLoop=1;jettySize=auto;html=1;entryX=1;entryY=0.5;entryDx=0;entryDy=0;fontFamily=Helvetica;fontSize=12;fontColor=default;fontStyle=1;autosize=0;resizable=1;endArrow=none;endFill=0;" edge="1" parent="1" source="fwOib0TPbmNcEEenDMgU-2" target="jHHFf4LGI2qsn1g1W1yF-15">
          <mxGeometry relative="1" as="geometry" />
        </mxCell>
        <mxCell id="jHHFf4LGI2qsn1g1W1yF-25" style="rounded=0;orthogonalLoop=1;jettySize=auto;html=1;entryX=1;entryY=0.5;entryDx=0;entryDy=0;fontFamily=Helvetica;fontSize=12;fontColor=default;fontStyle=1;autosize=0;resizable=1;endArrow=none;endFill=0;" edge="1" parent="1" source="fwOib0TPbmNcEEenDMgU-2" target="jHHFf4LGI2qsn1g1W1yF-17">
          <mxGeometry relative="1" as="geometry" />
        </mxCell>
        <mxCell id="jHHFf4LGI2qsn1g1W1yF-27" style="rounded=0;orthogonalLoop=1;jettySize=auto;html=1;entryX=1;entryY=0.5;entryDx=0;entryDy=0;fontFamily=Helvetica;fontSize=12;fontColor=default;fontStyle=1;autosize=0;resizable=1;endArrow=none;endFill=0;" edge="1" parent="1" source="fwOib0TPbmNcEEenDMgU-2" target="jHHFf4LGI2qsn1g1W1yF-26">
          <mxGeometry relative="1" as="geometry" />
        </mxCell>
        <mxCell id="fwOib0TPbmNcEEenDMgU-2" value="SE" style="shape=umlActor;verticalLabelPosition=bottom;verticalAlign=top;html=1;outlineConnect=0;fontStyle=1;fontSize=15;" vertex="1" parent="1">
          <mxGeometry x="680" y="290" width="30" height="60" as="geometry" />
        </mxCell>
        <mxCell id="sU4iLw-3uhZk9z4zUNlD-1" value=";" style="rounded=1;whiteSpace=wrap;html=1;fillColor=none;strokeWidth=3;strokeColor=#FF0000;dashed=1;" vertex="1" parent="1">
          <mxGeometry x="234" y="110" width="360" height="440" as="geometry" />
        </mxCell>
        <mxCell id="sU4iLw-3uhZk9z4zUNlD-2" value="&lt;font style=&quot;font-size: 15px;&quot;&gt;タスク管理システム&lt;/font&gt;" style="text;html=1;align=center;verticalAlign=middle;resizable=0;points=[];autosize=1;strokeColor=none;fillColor=none;fontColor=#FF0000;fontStyle=1" vertex="1" parent="1">
          <mxGeometry x="334" y="130" width="160" height="30" as="geometry" />
        </mxCell>
        <mxCell id="jHHFf4LGI2qsn1g1W1yF-11" value="①プロジェクト&lt;div&gt;作成&lt;/div&gt;" style="rounded=1;whiteSpace=wrap;html=1;align=center;verticalAlign=middle;fontFamily=Helvetica;fontSize=12;fontStyle=1;autosize=1;resizable=1;fillColor=#fff2cc;absoluteArcSize=0;strokeColor=#d6b656;" vertex="1" parent="1">
          <mxGeometry x="455" y="190" width="110" height="40" as="geometry" />
        </mxCell>
        <mxCell id="jHHFf4LGI2qsn1g1W1yF-15" value="③タスクを&lt;div&gt;登録・管理&lt;/div&gt;" style="rounded=1;whiteSpace=wrap;html=1;align=center;verticalAlign=middle;fontFamily=Helvetica;fontSize=12;fontStyle=1;autosize=1;resizable=1;fillColor=#fff2cc;absoluteArcSize=0;strokeColor=#d6b656;" vertex="1" parent="1">
          <mxGeometry x="470" y="365" width="80" height="40" as="geometry" />
        </mxCell>
        <mxCell id="jHHFf4LGI2qsn1g1W1yF-16" value="②マイルストーン&lt;div&gt;作成&lt;/div&gt;" style="rounded=1;whiteSpace=wrap;html=1;align=center;verticalAlign=middle;fontFamily=Helvetica;fontSize=12;fontStyle=1;autosize=1;resizable=1;fillColor=#fff2cc;absoluteArcSize=0;strokeColor=#d6b656;" vertex="1" parent="1">
          <mxGeometry x="450" y="250" width="120" height="40" as="geometry" />
        </mxCell>
        <mxCell id="jHHFf4LGI2qsn1g1W1yF-33" value="" style="rounded=0;orthogonalLoop=1;jettySize=auto;html=1;fontFamily=Helvetica;fontSize=12;fontColor=default;fontStyle=1;autosize=0;resizable=1;endArrow=none;endFill=0;strokeColor=#FF0000;entryX=0;entryY=0.5;entryDx=0;entryDy=0;exitX=1;exitY=0.5;exitDx=0;exitDy=0;" edge="1" parent="1" source="jHHFf4LGI2qsn1g1W1yF-17" target="jHHFf4LGI2qsn1g1W1yF-35">
          <mxGeometry relative="1" as="geometry">
            <mxPoint x="630.9854014598545" y="498" as="targetPoint" />
          </mxGeometry>
        </mxCell>
        <mxCell id="jHHFf4LGI2qsn1g1W1yF-17" value="⑥進捗を管理" style="rounded=1;whiteSpace=wrap;html=1;align=center;verticalAlign=middle;fontFamily=Helvetica;fontSize=12;fontStyle=1;autosize=1;resizable=1;fillColor=#fff2cc;absoluteArcSize=0;strokeColor=#d6b656;" vertex="1" parent="1">
          <mxGeometry x="460" y="420" width="100" height="30" as="geometry" />
        </mxCell>
        <mxCell id="jHHFf4LGI2qsn1g1W1yF-18" value="④タスクを&lt;div&gt;確認&lt;/div&gt;" style="rounded=1;whiteSpace=wrap;html=1;align=center;verticalAlign=middle;fontFamily=Helvetica;fontSize=12;fontStyle=1;autosize=0;resizable=1;fillColor=#fff2cc;absoluteArcSize=0;strokeColor=#d6b656;" vertex="1" parent="1">
          <mxGeometry x="280" y="186.75" width="110" height="46.5" as="geometry" />
        </mxCell>
        <mxCell id="jHHFf4LGI2qsn1g1W1yF-31" value="" style="rounded=0;orthogonalLoop=1;jettySize=auto;html=1;fontFamily=Helvetica;fontSize=12;fontColor=default;fontStyle=1;autosize=0;resizable=1;endArrow=none;endFill=0;" edge="1" parent="1" source="jHHFf4LGI2qsn1g1W1yF-19" target="jHHFf4LGI2qsn1g1W1yF-30">
          <mxGeometry relative="1" as="geometry" />
        </mxCell>
        <mxCell id="jHHFf4LGI2qsn1g1W1yF-19" value="⑤ステータスを&lt;div&gt;変更&lt;/div&gt;" style="rounded=1;whiteSpace=wrap;html=1;align=center;verticalAlign=middle;fontFamily=Helvetica;fontSize=12;fontStyle=1;autosize=0;resizable=1;fillColor=#fff2cc;absoluteArcSize=0;strokeColor=#d6b656;" vertex="1" parent="1">
          <mxGeometry x="280" y="303.5" width="280" height="46.5" as="geometry" />
        </mxCell>
        <mxCell id="4IlN3WsfPXwqNX6_hs0L-2" style="edgeStyle=elbowEdgeStyle;shape=connector;rounded=0;orthogonalLoop=1;jettySize=auto;elbow=horizontal;html=1;entryX=0.5;entryY=0;entryDx=0;entryDy=0;strokeColor=#FFB570;strokeWidth=2;align=center;verticalAlign=middle;fontFamily=Helvetica;fontSize=12;fontColor=default;fontStyle=1;labelBackgroundColor=default;autosize=0;resizable=1;endArrow=none;endFill=0;" edge="1" parent="1" source="jHHFf4LGI2qsn1g1W1yF-26" target="4IlN3WsfPXwqNX6_hs0L-1">
          <mxGeometry relative="1" as="geometry" />
        </mxCell>
        <mxCell id="jHHFf4LGI2qsn1g1W1yF-26" value="⑦タスクに紐づくスレッド上で会話&lt;div&gt;（質問、レビュー&lt;span style=&quot;background-color: initial;&quot;&gt;）&lt;/span&gt;&lt;/div&gt;" style="rounded=1;whiteSpace=wrap;html=1;align=center;verticalAlign=middle;fontFamily=Helvetica;fontSize=12;fontStyle=1;autosize=0;resizable=1;fillColor=#fff2cc;absoluteArcSize=0;strokeColor=#d6b656;" vertex="1" parent="1">
          <mxGeometry x="280" y="466.75" width="280" height="46.5" as="geometry" />
        </mxCell>
        <mxCell id="jHHFf4LGI2qsn1g1W1yF-30" value="未着手、作業中、&lt;div&gt;レビュー依頼中、&lt;/div&gt;&lt;div&gt;レビュー中、完了&lt;/div&gt;&lt;div&gt;（権限管理は一旦割愛）&lt;/div&gt;" style="whiteSpace=wrap;html=1;fillColor=#f8cecc;strokeColor=#b85450;rounded=1;fontStyle=1;autosize=0;resizable=1;" vertex="1" parent="1">
          <mxGeometry x="65" y="450" width="120" height="80" as="geometry" />
        </mxCell>
        <mxCell id="jHHFf4LGI2qsn1g1W1yF-34" style="edgeStyle=orthogonalEdgeStyle;rounded=0;orthogonalLoop=1;jettySize=auto;html=1;exitX=0.5;exitY=1;exitDx=0;exitDy=0;fontFamily=Helvetica;fontSize=12;fontColor=default;fontStyle=1;autosize=0;resizable=1;" edge="1" parent="1">
          <mxGeometry relative="1" as="geometry">
            <mxPoint x="705.0000000000002" y="550.0000000000002" as="sourcePoint" />
            <mxPoint x="705.0000000000002" y="550.0000000000002" as="targetPoint" />
          </mxGeometry>
        </mxCell>
        <mxCell id="jHHFf4LGI2qsn1g1W1yF-35" value="マイルストーン内のタスク完了率&lt;div style=&quot;line-height: 14.4px;&quot;&gt;（%）を個人・全体でみる&lt;/div&gt;" style="whiteSpace=wrap;html=1;fillColor=#f8cecc;strokeColor=#b85450;rounded=1;fontStyle=1;autosize=0;resizable=1;" vertex="1" parent="1">
          <mxGeometry x="620" y="500" width="190" height="60" as="geometry" />
        </mxCell>
        <mxCell id="jHHFf4LGI2qsn1g1W1yF-36" value="" style="rounded=0;orthogonalLoop=1;jettySize=auto;html=1;fontFamily=Helvetica;fontSize=12;fontColor=default;fontStyle=1;autosize=0;resizable=1;endArrow=none;endFill=0;strokeColor=#FF0000;entryX=0;entryY=0.5;entryDx=0;entryDy=0;exitX=1;exitY=0.5;exitDx=0;exitDy=0;" edge="1" parent="1" target="jHHFf4LGI2qsn1g1W1yF-37" source="jHHFf4LGI2qsn1g1W1yF-15">
          <mxGeometry relative="1" as="geometry">
            <mxPoint x="564" y="380" as="sourcePoint" />
            <mxPoint x="646.9854014598545" y="397" as="targetPoint" />
          </mxGeometry>
        </mxCell>
        <mxCell id="jHHFf4LGI2qsn1g1W1yF-37" value="・タスク：PG＝1：1（同じタスクの分担は、タスクを切り分けて登録する&lt;span style=&quot;background-color: initial;&quot;&gt;）&lt;/span&gt;&lt;div&gt;&lt;span style=&quot;background-color: initial;&quot;&gt;・Googleドライブの設計書と紐づける&lt;/span&gt;&lt;/div&gt;&lt;div&gt;&lt;span style=&quot;background-color: initial;&quot;&gt;・PGに割り当てられたタスクは、Slack通知する&lt;/span&gt;&lt;/div&gt;" style="whiteSpace=wrap;html=1;fillColor=#f8cecc;strokeColor=#b85450;rounded=1;fontStyle=1;autosize=0;resizable=1;" vertex="1" parent="1">
          <mxGeometry x="636" y="399" width="214" height="81" as="geometry" />
        </mxCell>
        <mxCell id="jHHFf4LGI2qsn1g1W1yF-38" value="" style="rounded=0;orthogonalLoop=1;jettySize=auto;html=1;fontFamily=Helvetica;fontSize=12;fontColor=default;fontStyle=1;autosize=0;resizable=1;endArrow=none;endFill=0;strokeColor=#FF0000;entryX=0;entryY=0.5;entryDx=0;entryDy=0;exitX=1;exitY=0.5;exitDx=0;exitDy=0;" edge="1" parent="1" target="jHHFf4LGI2qsn1g1W1yF-39" source="jHHFf4LGI2qsn1g1W1yF-16">
          <mxGeometry relative="1" as="geometry">
            <mxPoint x="548" y="180" as="sourcePoint" />
            <mxPoint x="630.9854014598545" y="197" as="targetPoint" />
          </mxGeometry>
        </mxCell>
        <mxCell id="jHHFf4LGI2qsn1g1W1yF-39" value="・最長3ヶ月まで（1日刻みで登録）&lt;div&gt;・マイルストーンは同時並行でもOK&lt;/div&gt;&lt;div style=&quot;text-align: left;&quot;&gt;・タスク：マイルストーン＝1：1&lt;/div&gt;" style="whiteSpace=wrap;html=1;fillColor=#f8cecc;strokeColor=#b85450;rounded=1;fontStyle=1;autosize=0;resizable=1;" vertex="1" parent="1">
          <mxGeometry x="620" y="199" width="210" height="60" as="geometry" />
        </mxCell>
        <mxCell id="81KZRyFFyyB6t9X-5YBu-2" style="shape=connector;rounded=0;orthogonalLoop=1;jettySize=auto;elbow=horizontal;html=1;entryX=1;entryY=0;entryDx=0;entryDy=0;strokeColor=none;strokeWidth=2;align=center;verticalAlign=middle;fontFamily=Helvetica;fontSize=12;fontColor=default;fontStyle=1;labelBackgroundColor=default;autosize=0;resizable=1;endArrow=none;endFill=0;exitX=0;exitY=0.5;exitDx=0;exitDy=0;" edge="1" parent="1" source="81KZRyFFyyB6t9X-5YBu-1" target="jHHFf4LGI2qsn1g1W1yF-11">
          <mxGeometry relative="1" as="geometry" />
        </mxCell>
        <mxCell id="81KZRyFFyyB6t9X-5YBu-3" style="shape=connector;rounded=0;orthogonalLoop=1;jettySize=auto;elbow=horizontal;html=1;entryX=1;entryY=0;entryDx=0;entryDy=0;strokeColor=#FF0000;strokeWidth=1;align=center;verticalAlign=middle;fontFamily=Helvetica;fontSize=12;fontColor=default;fontStyle=1;labelBackgroundColor=default;autosize=0;resizable=1;endArrow=none;endFill=0;exitX=0;exitY=0.5;exitDx=0;exitDy=0;" edge="1" parent="1" source="81KZRyFFyyB6t9X-5YBu-1" target="jHHFf4LGI2qsn1g1W1yF-11">
          <mxGeometry relative="1" as="geometry" />
        </mxCell>
        <mxCell id="81KZRyFFyyB6t9X-5YBu-1" value="・同時に3個まで掛け持ちOK&lt;div&gt;・新人は1個に集中&lt;/div&gt;&lt;div&gt;=&amp;gt;「新人」の定義が決まってないので、初期リリースでは運用でカバー&lt;/div&gt;" style="whiteSpace=wrap;html=1;fillColor=#f8cecc;strokeColor=#b85450;rounded=1;fontStyle=1;autosize=0;resizable=1;align=left;" vertex="1" parent="1">
          <mxGeometry x="620" y="120" width="210" height="60" as="geometry" />
        </mxCell>
        <mxCell id="4IlN3WsfPXwqNX6_hs0L-1" value="・タスク：スレッド＝1：N（上限は5個）&lt;div&gt;=&amp;gt;多すぎる場合、タスク内容に問題があると判断してタスクの見直しを行う。&lt;/div&gt;" style="whiteSpace=wrap;html=1;fillColor=#f8cecc;strokeColor=#b85450;rounded=1;fontStyle=1;autosize=0;resizable=1;" vertex="1" parent="1">
          <mxGeometry x="297.5" y="570" width="245" height="60" as="geometry" />
        </mxCell>
        <mxCell id="qn0wGcbJOq2m1sHxFsZ7-1" style="shape=connector;rounded=0;orthogonalLoop=1;jettySize=auto;elbow=horizontal;html=1;entryX=1;entryY=0.5;entryDx=0;entryDy=0;strokeColor=#000000;strokeWidth=1;align=center;verticalAlign=middle;fontFamily=Helvetica;fontSize=12;fontColor=default;fontStyle=1;labelBackgroundColor=default;autosize=0;resizable=1;endArrow=none;endFill=0;" edge="1" parent="1" source="fwOib0TPbmNcEEenDMgU-2" target="jHHFf4LGI2qsn1g1W1yF-19">
          <mxGeometry relative="1" as="geometry" />
        </mxCell>
      </root>
    </mxGraphModel>
  </diagram>
  <diagram id="oU_V6PmI8_g0hwlOPJqQ" name="状態遷移図">
    <mxGraphModel dx="1259" dy="662" grid="1" gridSize="10" guides="1" tooltips="1" connect="1" arrows="1" fold="1" page="1" pageScale="1" pageWidth="827" pageHeight="1169" math="0" shadow="0">
      <root>
        <mxCell id="0" />
        <mxCell id="1" parent="0" />
        <mxCell id="7oruewHQrvYj_wpPlvMp-1" value="" style="shape=table;startSize=0;container=1;collapsible=0;childLayout=tableLayout;rounded=1;strokeColor=#d6b656;align=center;verticalAlign=middle;fontFamily=Helvetica;fontSize=12;fontStyle=1;autosize=0;resizable=1;fillColor=#fff2cc;" vertex="1" parent="1">
          <mxGeometry x="210" y="150" width="492" height="336" as="geometry" />
        </mxCell>
        <mxCell id="7oruewHQrvYj_wpPlvMp-2" value="" style="shape=tableRow;horizontal=0;startSize=0;swimlaneHead=0;swimlaneBody=0;strokeColor=inherit;top=0;left=0;bottom=0;right=0;collapsible=0;dropTarget=0;fillColor=none;points=[[0,0.5],[1,0.5]];portConstraint=eastwest;rounded=1;align=center;verticalAlign=middle;fontFamily=Helvetica;fontSize=12;fontColor=default;fontStyle=1;autosize=0;resizable=1;" vertex="1" parent="7oruewHQrvYj_wpPlvMp-1">
          <mxGeometry width="492" height="56" as="geometry" />
        </mxCell>
        <mxCell id="7oruewHQrvYj_wpPlvMp-3" value="from/to" style="shape=partialRectangle;html=1;whiteSpace=wrap;connectable=0;strokeColor=inherit;overflow=hidden;fillColor=none;top=0;left=0;bottom=0;right=0;pointerEvents=1;rounded=1;align=center;verticalAlign=middle;fontFamily=Helvetica;fontSize=12;fontColor=default;fontStyle=1;autosize=0;resizable=1;" vertex="1" parent="7oruewHQrvYj_wpPlvMp-2">
          <mxGeometry width="81" height="56" as="geometry">
            <mxRectangle width="81" height="56" as="alternateBounds" />
          </mxGeometry>
        </mxCell>
        <mxCell id="7oruewHQrvYj_wpPlvMp-4" value="未着手" style="shape=partialRectangle;html=1;whiteSpace=wrap;connectable=0;strokeColor=inherit;overflow=hidden;fillColor=none;top=0;left=0;bottom=0;right=0;pointerEvents=1;rounded=1;align=center;verticalAlign=middle;fontFamily=Helvetica;fontSize=12;fontColor=default;fontStyle=1;autosize=0;resizable=1;" vertex="1" parent="7oruewHQrvYj_wpPlvMp-2">
          <mxGeometry x="81" width="80" height="56" as="geometry">
            <mxRectangle width="80" height="56" as="alternateBounds" />
          </mxGeometry>
        </mxCell>
        <mxCell id="7oruewHQrvYj_wpPlvMp-5" value="作業中" style="shape=partialRectangle;html=1;whiteSpace=wrap;connectable=0;strokeColor=inherit;overflow=hidden;fillColor=none;top=0;left=0;bottom=0;right=0;pointerEvents=1;rounded=1;align=center;verticalAlign=middle;fontFamily=Helvetica;fontSize=12;fontColor=default;fontStyle=1;autosize=0;resizable=1;" vertex="1" parent="7oruewHQrvYj_wpPlvMp-2">
          <mxGeometry x="161" width="85" height="56" as="geometry">
            <mxRectangle width="85" height="56" as="alternateBounds" />
          </mxGeometry>
        </mxCell>
        <mxCell id="Pdxr75KfPCARVDbr8y6V-1" value="レビュー&lt;div&gt;依頼中&lt;/div&gt;" style="shape=partialRectangle;html=1;whiteSpace=wrap;connectable=0;strokeColor=inherit;overflow=hidden;fillColor=none;top=0;left=0;bottom=0;right=0;pointerEvents=1;rounded=1;align=center;verticalAlign=middle;fontFamily=Helvetica;fontSize=12;fontColor=default;fontStyle=1;autosize=0;resizable=1;" vertex="1" parent="7oruewHQrvYj_wpPlvMp-2">
          <mxGeometry x="246" width="82" height="56" as="geometry">
            <mxRectangle width="82" height="56" as="alternateBounds" />
          </mxGeometry>
        </mxCell>
        <mxCell id="7oruewHQrvYj_wpPlvMp-6" value="レビュー中" style="shape=partialRectangle;html=1;whiteSpace=wrap;connectable=0;strokeColor=inherit;overflow=hidden;fillColor=none;top=0;left=0;bottom=0;right=0;pointerEvents=1;rounded=1;align=center;verticalAlign=middle;fontFamily=Helvetica;fontSize=12;fontColor=default;fontStyle=1;autosize=0;resizable=1;" vertex="1" parent="7oruewHQrvYj_wpPlvMp-2">
          <mxGeometry x="328" width="82" height="56" as="geometry">
            <mxRectangle width="82" height="56" as="alternateBounds" />
          </mxGeometry>
        </mxCell>
        <mxCell id="7oruewHQrvYj_wpPlvMp-7" value="完了" style="shape=partialRectangle;html=1;whiteSpace=wrap;connectable=0;strokeColor=inherit;overflow=hidden;fillColor=none;top=0;left=0;bottom=0;right=0;pointerEvents=1;rounded=1;align=center;verticalAlign=middle;fontFamily=Helvetica;fontSize=12;fontColor=default;fontStyle=1;autosize=0;resizable=1;" vertex="1" parent="7oruewHQrvYj_wpPlvMp-2">
          <mxGeometry x="410" width="82" height="56" as="geometry">
            <mxRectangle width="82" height="56" as="alternateBounds" />
          </mxGeometry>
        </mxCell>
        <mxCell id="7oruewHQrvYj_wpPlvMp-8" value="" style="shape=tableRow;horizontal=0;startSize=0;swimlaneHead=0;swimlaneBody=0;strokeColor=inherit;top=0;left=0;bottom=0;right=0;collapsible=0;dropTarget=0;fillColor=none;points=[[0,0.5],[1,0.5]];portConstraint=eastwest;rounded=1;align=center;verticalAlign=middle;fontFamily=Helvetica;fontSize=12;fontColor=default;fontStyle=1;autosize=0;resizable=1;" vertex="1" parent="7oruewHQrvYj_wpPlvMp-1">
          <mxGeometry y="56" width="492" height="56" as="geometry" />
        </mxCell>
        <mxCell id="7oruewHQrvYj_wpPlvMp-9" value="未着手" style="shape=partialRectangle;html=1;whiteSpace=wrap;connectable=0;strokeColor=inherit;overflow=hidden;fillColor=none;top=0;left=0;bottom=0;right=0;pointerEvents=1;rounded=1;align=center;verticalAlign=middle;fontFamily=Helvetica;fontSize=12;fontColor=default;fontStyle=1;autosize=0;resizable=1;" vertex="1" parent="7oruewHQrvYj_wpPlvMp-8">
          <mxGeometry width="81" height="56" as="geometry">
            <mxRectangle width="81" height="56" as="alternateBounds" />
          </mxGeometry>
        </mxCell>
        <mxCell id="7oruewHQrvYj_wpPlvMp-10" value="ー" style="shape=partialRectangle;html=1;whiteSpace=wrap;connectable=0;strokeColor=inherit;overflow=hidden;fillColor=none;top=0;left=0;bottom=0;right=0;pointerEvents=1;rounded=1;align=center;verticalAlign=middle;fontFamily=Helvetica;fontSize=12;fontColor=default;fontStyle=1;autosize=0;resizable=1;" vertex="1" parent="7oruewHQrvYj_wpPlvMp-8">
          <mxGeometry x="81" width="80" height="56" as="geometry">
            <mxRectangle width="80" height="56" as="alternateBounds" />
          </mxGeometry>
        </mxCell>
        <mxCell id="7oruewHQrvYj_wpPlvMp-11" value="〇" style="shape=partialRectangle;html=1;whiteSpace=wrap;connectable=0;strokeColor=inherit;overflow=hidden;fillColor=none;top=0;left=0;bottom=0;right=0;pointerEvents=1;rounded=1;align=center;verticalAlign=middle;fontFamily=Helvetica;fontSize=12;fontColor=default;fontStyle=1;autosize=0;resizable=1;" vertex="1" parent="7oruewHQrvYj_wpPlvMp-8">
          <mxGeometry x="161" width="85" height="56" as="geometry">
            <mxRectangle width="85" height="56" as="alternateBounds" />
          </mxGeometry>
        </mxCell>
        <mxCell id="Pdxr75KfPCARVDbr8y6V-2" value="×" style="shape=partialRectangle;html=1;whiteSpace=wrap;connectable=0;strokeColor=inherit;overflow=hidden;fillColor=none;top=0;left=0;bottom=0;right=0;pointerEvents=1;rounded=1;align=center;verticalAlign=middle;fontFamily=Helvetica;fontSize=12;fontColor=default;fontStyle=1;autosize=0;resizable=1;" vertex="1" parent="7oruewHQrvYj_wpPlvMp-8">
          <mxGeometry x="246" width="82" height="56" as="geometry">
            <mxRectangle width="82" height="56" as="alternateBounds" />
          </mxGeometry>
        </mxCell>
        <mxCell id="7oruewHQrvYj_wpPlvMp-12" value="×" style="shape=partialRectangle;html=1;whiteSpace=wrap;connectable=0;strokeColor=inherit;overflow=hidden;fillColor=none;top=0;left=0;bottom=0;right=0;pointerEvents=1;rounded=1;align=center;verticalAlign=middle;fontFamily=Helvetica;fontSize=12;fontColor=default;fontStyle=1;autosize=0;resizable=1;" vertex="1" parent="7oruewHQrvYj_wpPlvMp-8">
          <mxGeometry x="328" width="82" height="56" as="geometry">
            <mxRectangle width="82" height="56" as="alternateBounds" />
          </mxGeometry>
        </mxCell>
        <mxCell id="7oruewHQrvYj_wpPlvMp-13" value="×" style="shape=partialRectangle;html=1;whiteSpace=wrap;connectable=0;strokeColor=inherit;overflow=hidden;fillColor=none;top=0;left=0;bottom=0;right=0;pointerEvents=1;rounded=1;align=center;verticalAlign=middle;fontFamily=Helvetica;fontSize=12;fontColor=default;fontStyle=1;autosize=0;resizable=1;" vertex="1" parent="7oruewHQrvYj_wpPlvMp-8">
          <mxGeometry x="410" width="82" height="56" as="geometry">
            <mxRectangle width="82" height="56" as="alternateBounds" />
          </mxGeometry>
        </mxCell>
        <mxCell id="7oruewHQrvYj_wpPlvMp-14" value="" style="shape=tableRow;horizontal=0;startSize=0;swimlaneHead=0;swimlaneBody=0;strokeColor=inherit;top=0;left=0;bottom=0;right=0;collapsible=0;dropTarget=0;fillColor=none;points=[[0,0.5],[1,0.5]];portConstraint=eastwest;rounded=1;align=center;verticalAlign=middle;fontFamily=Helvetica;fontSize=12;fontColor=default;fontStyle=1;autosize=0;resizable=1;" vertex="1" parent="7oruewHQrvYj_wpPlvMp-1">
          <mxGeometry y="112" width="492" height="56" as="geometry" />
        </mxCell>
        <mxCell id="7oruewHQrvYj_wpPlvMp-15" value="作業中" style="shape=partialRectangle;html=1;whiteSpace=wrap;connectable=0;strokeColor=inherit;overflow=hidden;fillColor=none;top=0;left=0;bottom=0;right=0;pointerEvents=1;rounded=1;align=center;verticalAlign=middle;fontFamily=Helvetica;fontSize=12;fontColor=default;fontStyle=1;autosize=0;resizable=1;" vertex="1" parent="7oruewHQrvYj_wpPlvMp-14">
          <mxGeometry width="81" height="56" as="geometry">
            <mxRectangle width="81" height="56" as="alternateBounds" />
          </mxGeometry>
        </mxCell>
        <mxCell id="7oruewHQrvYj_wpPlvMp-16" value="〇" style="shape=partialRectangle;html=1;whiteSpace=wrap;connectable=0;strokeColor=inherit;overflow=hidden;fillColor=none;top=0;left=0;bottom=0;right=0;pointerEvents=1;rounded=1;align=center;verticalAlign=middle;fontFamily=Helvetica;fontSize=12;fontColor=default;fontStyle=1;autosize=0;resizable=1;" vertex="1" parent="7oruewHQrvYj_wpPlvMp-14">
          <mxGeometry x="81" width="80" height="56" as="geometry">
            <mxRectangle width="80" height="56" as="alternateBounds" />
          </mxGeometry>
        </mxCell>
        <mxCell id="7oruewHQrvYj_wpPlvMp-17" value="ー" style="shape=partialRectangle;html=1;whiteSpace=wrap;connectable=0;strokeColor=inherit;overflow=hidden;fillColor=none;top=0;left=0;bottom=0;right=0;pointerEvents=1;rounded=1;align=center;verticalAlign=middle;fontFamily=Helvetica;fontSize=12;fontColor=default;fontStyle=1;autosize=0;resizable=1;" vertex="1" parent="7oruewHQrvYj_wpPlvMp-14">
          <mxGeometry x="161" width="85" height="56" as="geometry">
            <mxRectangle width="85" height="56" as="alternateBounds" />
          </mxGeometry>
        </mxCell>
        <mxCell id="Pdxr75KfPCARVDbr8y6V-3" value="〇" style="shape=partialRectangle;html=1;whiteSpace=wrap;connectable=0;strokeColor=inherit;overflow=hidden;fillColor=none;top=0;left=0;bottom=0;right=0;pointerEvents=1;rounded=1;align=center;verticalAlign=middle;fontFamily=Helvetica;fontSize=12;fontColor=default;fontStyle=1;autosize=0;resizable=1;" vertex="1" parent="7oruewHQrvYj_wpPlvMp-14">
          <mxGeometry x="246" width="82" height="56" as="geometry">
            <mxRectangle width="82" height="56" as="alternateBounds" />
          </mxGeometry>
        </mxCell>
        <mxCell id="7oruewHQrvYj_wpPlvMp-18" value="〇=&amp;gt;×" style="shape=partialRectangle;html=1;whiteSpace=wrap;connectable=0;strokeColor=inherit;overflow=hidden;fillColor=none;top=0;left=0;bottom=0;right=0;pointerEvents=1;rounded=1;align=center;verticalAlign=middle;fontFamily=Helvetica;fontSize=12;fontColor=default;fontStyle=1;autosize=0;resizable=1;" vertex="1" parent="7oruewHQrvYj_wpPlvMp-14">
          <mxGeometry x="328" width="82" height="56" as="geometry">
            <mxRectangle width="82" height="56" as="alternateBounds" />
          </mxGeometry>
        </mxCell>
        <mxCell id="7oruewHQrvYj_wpPlvMp-19" value="〇" style="shape=partialRectangle;html=1;whiteSpace=wrap;connectable=0;strokeColor=inherit;overflow=hidden;fillColor=none;top=0;left=0;bottom=0;right=0;pointerEvents=1;rounded=1;align=center;verticalAlign=middle;fontFamily=Helvetica;fontSize=12;fontColor=default;fontStyle=1;autosize=0;resizable=1;" vertex="1" parent="7oruewHQrvYj_wpPlvMp-14">
          <mxGeometry x="410" width="82" height="56" as="geometry">
            <mxRectangle width="82" height="56" as="alternateBounds" />
          </mxGeometry>
        </mxCell>
        <mxCell id="Pdxr75KfPCARVDbr8y6V-6" style="shape=tableRow;horizontal=0;startSize=0;swimlaneHead=0;swimlaneBody=0;strokeColor=inherit;top=0;left=0;bottom=0;right=0;collapsible=0;dropTarget=0;fillColor=none;points=[[0,0.5],[1,0.5]];portConstraint=eastwest;rounded=1;align=center;verticalAlign=middle;fontFamily=Helvetica;fontSize=12;fontColor=default;fontStyle=1;autosize=0;resizable=1;" vertex="1" parent="7oruewHQrvYj_wpPlvMp-1">
          <mxGeometry y="168" width="492" height="56" as="geometry" />
        </mxCell>
        <mxCell id="Pdxr75KfPCARVDbr8y6V-7" value="レビュー依頼中" style="shape=partialRectangle;html=1;whiteSpace=wrap;connectable=0;strokeColor=inherit;overflow=hidden;fillColor=none;top=0;left=0;bottom=0;right=0;pointerEvents=1;rounded=1;align=center;verticalAlign=middle;fontFamily=Helvetica;fontSize=12;fontColor=default;fontStyle=1;autosize=0;resizable=1;" vertex="1" parent="Pdxr75KfPCARVDbr8y6V-6">
          <mxGeometry width="81" height="56" as="geometry">
            <mxRectangle width="81" height="56" as="alternateBounds" />
          </mxGeometry>
        </mxCell>
        <mxCell id="Pdxr75KfPCARVDbr8y6V-8" value="×" style="shape=partialRectangle;html=1;whiteSpace=wrap;connectable=0;strokeColor=inherit;overflow=hidden;fillColor=none;top=0;left=0;bottom=0;right=0;pointerEvents=1;rounded=1;align=center;verticalAlign=middle;fontFamily=Helvetica;fontSize=12;fontColor=default;fontStyle=1;autosize=0;resizable=1;" vertex="1" parent="Pdxr75KfPCARVDbr8y6V-6">
          <mxGeometry x="81" width="80" height="56" as="geometry">
            <mxRectangle width="80" height="56" as="alternateBounds" />
          </mxGeometry>
        </mxCell>
        <mxCell id="Pdxr75KfPCARVDbr8y6V-9" value="〇" style="shape=partialRectangle;html=1;whiteSpace=wrap;connectable=0;strokeColor=inherit;overflow=hidden;fillColor=none;top=0;left=0;bottom=0;right=0;pointerEvents=1;rounded=1;align=center;verticalAlign=middle;fontFamily=Helvetica;fontSize=12;fontColor=default;fontStyle=1;autosize=0;resizable=1;" vertex="1" parent="Pdxr75KfPCARVDbr8y6V-6">
          <mxGeometry x="161" width="85" height="56" as="geometry">
            <mxRectangle width="85" height="56" as="alternateBounds" />
          </mxGeometry>
        </mxCell>
        <mxCell id="Pdxr75KfPCARVDbr8y6V-10" value="ー" style="shape=partialRectangle;html=1;whiteSpace=wrap;connectable=0;strokeColor=inherit;overflow=hidden;fillColor=none;top=0;left=0;bottom=0;right=0;pointerEvents=1;rounded=1;align=center;verticalAlign=middle;fontFamily=Helvetica;fontSize=12;fontColor=default;fontStyle=1;autosize=0;resizable=1;" vertex="1" parent="Pdxr75KfPCARVDbr8y6V-6">
          <mxGeometry x="246" width="82" height="56" as="geometry">
            <mxRectangle width="82" height="56" as="alternateBounds" />
          </mxGeometry>
        </mxCell>
        <mxCell id="Pdxr75KfPCARVDbr8y6V-11" value="〇" style="shape=partialRectangle;html=1;whiteSpace=wrap;connectable=0;strokeColor=inherit;overflow=hidden;fillColor=none;top=0;left=0;bottom=0;right=0;pointerEvents=1;rounded=1;align=center;verticalAlign=middle;fontFamily=Helvetica;fontSize=12;fontColor=default;fontStyle=1;autosize=0;resizable=1;" vertex="1" parent="Pdxr75KfPCARVDbr8y6V-6">
          <mxGeometry x="328" width="82" height="56" as="geometry">
            <mxRectangle width="82" height="56" as="alternateBounds" />
          </mxGeometry>
        </mxCell>
        <mxCell id="Pdxr75KfPCARVDbr8y6V-12" value="×" style="shape=partialRectangle;html=1;whiteSpace=wrap;connectable=0;strokeColor=inherit;overflow=hidden;fillColor=none;top=0;left=0;bottom=0;right=0;pointerEvents=1;rounded=1;align=center;verticalAlign=middle;fontFamily=Helvetica;fontSize=12;fontColor=default;fontStyle=1;autosize=0;resizable=1;" vertex="1" parent="Pdxr75KfPCARVDbr8y6V-6">
          <mxGeometry x="410" width="82" height="56" as="geometry">
            <mxRectangle width="82" height="56" as="alternateBounds" />
          </mxGeometry>
        </mxCell>
        <mxCell id="7oruewHQrvYj_wpPlvMp-20" value="" style="shape=tableRow;horizontal=0;startSize=0;swimlaneHead=0;swimlaneBody=0;strokeColor=inherit;top=0;left=0;bottom=0;right=0;collapsible=0;dropTarget=0;fillColor=none;points=[[0,0.5],[1,0.5]];portConstraint=eastwest;rounded=1;align=center;verticalAlign=middle;fontFamily=Helvetica;fontSize=12;fontColor=default;fontStyle=1;autosize=0;resizable=1;" vertex="1" parent="7oruewHQrvYj_wpPlvMp-1">
          <mxGeometry y="224" width="492" height="56" as="geometry" />
        </mxCell>
        <mxCell id="7oruewHQrvYj_wpPlvMp-21" value="レビュー中" style="shape=partialRectangle;html=1;whiteSpace=wrap;connectable=0;strokeColor=inherit;overflow=hidden;fillColor=none;top=0;left=0;bottom=0;right=0;pointerEvents=1;rounded=1;align=center;verticalAlign=middle;fontFamily=Helvetica;fontSize=12;fontColor=default;fontStyle=1;autosize=0;resizable=1;" vertex="1" parent="7oruewHQrvYj_wpPlvMp-20">
          <mxGeometry width="81" height="56" as="geometry">
            <mxRectangle width="81" height="56" as="alternateBounds" />
          </mxGeometry>
        </mxCell>
        <mxCell id="7oruewHQrvYj_wpPlvMp-22" value="×" style="shape=partialRectangle;html=1;whiteSpace=wrap;connectable=0;strokeColor=inherit;overflow=hidden;fillColor=none;top=0;left=0;bottom=0;right=0;pointerEvents=1;rounded=1;align=center;verticalAlign=middle;fontFamily=Helvetica;fontSize=12;fontColor=default;fontStyle=1;autosize=0;resizable=1;" vertex="1" parent="7oruewHQrvYj_wpPlvMp-20">
          <mxGeometry x="81" width="80" height="56" as="geometry">
            <mxRectangle width="80" height="56" as="alternateBounds" />
          </mxGeometry>
        </mxCell>
        <mxCell id="7oruewHQrvYj_wpPlvMp-23" value="〇" style="shape=partialRectangle;html=1;whiteSpace=wrap;connectable=0;strokeColor=inherit;overflow=hidden;fillColor=none;top=0;left=0;bottom=0;right=0;pointerEvents=1;rounded=1;align=center;verticalAlign=middle;fontFamily=Helvetica;fontSize=12;fontColor=default;fontStyle=1;autosize=0;resizable=1;" vertex="1" parent="7oruewHQrvYj_wpPlvMp-20">
          <mxGeometry x="161" width="85" height="56" as="geometry">
            <mxRectangle width="85" height="56" as="alternateBounds" />
          </mxGeometry>
        </mxCell>
        <mxCell id="Pdxr75KfPCARVDbr8y6V-4" value="〇" style="shape=partialRectangle;html=1;whiteSpace=wrap;connectable=0;strokeColor=inherit;overflow=hidden;fillColor=none;top=0;left=0;bottom=0;right=0;pointerEvents=1;rounded=1;align=center;verticalAlign=middle;fontFamily=Helvetica;fontSize=12;fontColor=default;fontStyle=1;autosize=0;resizable=1;" vertex="1" parent="7oruewHQrvYj_wpPlvMp-20">
          <mxGeometry x="246" width="82" height="56" as="geometry">
            <mxRectangle width="82" height="56" as="alternateBounds" />
          </mxGeometry>
        </mxCell>
        <mxCell id="7oruewHQrvYj_wpPlvMp-24" value="ー" style="shape=partialRectangle;html=1;whiteSpace=wrap;connectable=0;strokeColor=inherit;overflow=hidden;fillColor=none;top=0;left=0;bottom=0;right=0;pointerEvents=1;rounded=1;align=center;verticalAlign=middle;fontFamily=Helvetica;fontSize=12;fontColor=default;fontStyle=1;autosize=0;resizable=1;" vertex="1" parent="7oruewHQrvYj_wpPlvMp-20">
          <mxGeometry x="328" width="82" height="56" as="geometry">
            <mxRectangle width="82" height="56" as="alternateBounds" />
          </mxGeometry>
        </mxCell>
        <mxCell id="7oruewHQrvYj_wpPlvMp-25" value="〇" style="shape=partialRectangle;html=1;whiteSpace=wrap;connectable=0;strokeColor=inherit;overflow=hidden;fillColor=none;top=0;left=0;bottom=0;right=0;pointerEvents=1;rounded=1;align=center;verticalAlign=middle;fontFamily=Helvetica;fontSize=12;fontColor=default;fontStyle=1;autosize=0;resizable=1;" vertex="1" parent="7oruewHQrvYj_wpPlvMp-20">
          <mxGeometry x="410" width="82" height="56" as="geometry">
            <mxRectangle width="82" height="56" as="alternateBounds" />
          </mxGeometry>
        </mxCell>
        <mxCell id="7oruewHQrvYj_wpPlvMp-26" value="" style="shape=tableRow;horizontal=0;startSize=0;swimlaneHead=0;swimlaneBody=0;strokeColor=inherit;top=0;left=0;bottom=0;right=0;collapsible=0;dropTarget=0;fillColor=none;points=[[0,0.5],[1,0.5]];portConstraint=eastwest;rounded=1;align=center;verticalAlign=middle;fontFamily=Helvetica;fontSize=12;fontColor=default;fontStyle=1;autosize=0;resizable=1;" vertex="1" parent="7oruewHQrvYj_wpPlvMp-1">
          <mxGeometry y="280" width="492" height="56" as="geometry" />
        </mxCell>
        <mxCell id="7oruewHQrvYj_wpPlvMp-27" value="完了" style="shape=partialRectangle;html=1;whiteSpace=wrap;connectable=0;strokeColor=inherit;overflow=hidden;fillColor=none;top=0;left=0;bottom=0;right=0;pointerEvents=1;rounded=1;align=center;verticalAlign=middle;fontFamily=Helvetica;fontSize=12;fontColor=default;fontStyle=1;autosize=0;resizable=1;" vertex="1" parent="7oruewHQrvYj_wpPlvMp-26">
          <mxGeometry width="81" height="56" as="geometry">
            <mxRectangle width="81" height="56" as="alternateBounds" />
          </mxGeometry>
        </mxCell>
        <mxCell id="7oruewHQrvYj_wpPlvMp-28" value="×" style="shape=partialRectangle;html=1;whiteSpace=wrap;connectable=0;strokeColor=inherit;overflow=hidden;fillColor=none;top=0;left=0;bottom=0;right=0;pointerEvents=1;rounded=1;align=center;verticalAlign=middle;fontFamily=Helvetica;fontSize=12;fontColor=default;fontStyle=1;autosize=0;resizable=1;" vertex="1" parent="7oruewHQrvYj_wpPlvMp-26">
          <mxGeometry x="81" width="80" height="56" as="geometry">
            <mxRectangle width="80" height="56" as="alternateBounds" />
          </mxGeometry>
        </mxCell>
        <mxCell id="7oruewHQrvYj_wpPlvMp-29" value="×" style="shape=partialRectangle;html=1;whiteSpace=wrap;connectable=0;strokeColor=inherit;overflow=hidden;fillColor=none;top=0;left=0;bottom=0;right=0;pointerEvents=1;rounded=1;align=center;verticalAlign=middle;fontFamily=Helvetica;fontSize=12;fontColor=default;fontStyle=1;autosize=0;resizable=1;" vertex="1" parent="7oruewHQrvYj_wpPlvMp-26">
          <mxGeometry x="161" width="85" height="56" as="geometry">
            <mxRectangle width="85" height="56" as="alternateBounds" />
          </mxGeometry>
        </mxCell>
        <mxCell id="Pdxr75KfPCARVDbr8y6V-5" value="×" style="shape=partialRectangle;html=1;whiteSpace=wrap;connectable=0;strokeColor=inherit;overflow=hidden;fillColor=none;top=0;left=0;bottom=0;right=0;pointerEvents=1;rounded=1;align=center;verticalAlign=middle;fontFamily=Helvetica;fontSize=12;fontColor=default;fontStyle=1;autosize=0;resizable=1;" vertex="1" parent="7oruewHQrvYj_wpPlvMp-26">
          <mxGeometry x="246" width="82" height="56" as="geometry">
            <mxRectangle width="82" height="56" as="alternateBounds" />
          </mxGeometry>
        </mxCell>
        <mxCell id="7oruewHQrvYj_wpPlvMp-30" value="×" style="shape=partialRectangle;html=1;whiteSpace=wrap;connectable=0;strokeColor=inherit;overflow=hidden;fillColor=none;top=0;left=0;bottom=0;right=0;pointerEvents=1;rounded=1;align=center;verticalAlign=middle;fontFamily=Helvetica;fontSize=12;fontColor=default;fontStyle=1;autosize=0;resizable=1;" vertex="1" parent="7oruewHQrvYj_wpPlvMp-26">
          <mxGeometry x="328" width="82" height="56" as="geometry">
            <mxRectangle width="82" height="56" as="alternateBounds" />
          </mxGeometry>
        </mxCell>
        <mxCell id="7oruewHQrvYj_wpPlvMp-31" value="ー" style="shape=partialRectangle;html=1;whiteSpace=wrap;connectable=0;strokeColor=inherit;overflow=hidden;fillColor=none;top=0;left=0;bottom=0;right=0;pointerEvents=1;rounded=1;align=center;verticalAlign=middle;fontFamily=Helvetica;fontSize=12;fontColor=default;fontStyle=1;autosize=0;resizable=1;" vertex="1" parent="7oruewHQrvYj_wpPlvMp-26">
          <mxGeometry x="410" width="82" height="56" as="geometry">
            <mxRectangle width="82" height="56" as="alternateBounds" />
          </mxGeometry>
        </mxCell>
      </root>
    </mxGraphModel>
  </diagram>
  <diagram id="ynh6IskfslWB0HAyEu64" name="アクティビティ図">
    <mxGraphModel dx="1259" dy="662" grid="1" gridSize="10" guides="1" tooltips="1" connect="1" arrows="1" fold="1" page="1" pageScale="1" pageWidth="1654" pageHeight="2336" math="0" shadow="0">
      <root>
        <mxCell id="0" />
        <mxCell id="1" parent="0" />
        <mxCell id="R2dLYAusRlBEIW6N9_9W-1" value="■①プロジェクトを登録" style="text;html=1;align=center;verticalAlign=middle;whiteSpace=wrap;rounded=0;fontFamily=Helvetica;fontSize=16;fontColor=default;fontStyle=1;autosize=0;resizable=1;" vertex="1" parent="1">
          <mxGeometry x="30" y="20" width="180" height="30" as="geometry" />
        </mxCell>
        <mxCell id="R2dLYAusRlBEIW6N9_9W-2" value="■②マイルストーンを登録" style="text;html=1;align=center;verticalAlign=middle;whiteSpace=wrap;rounded=0;fontFamily=Helvetica;fontSize=16;fontColor=default;fontStyle=1;autosize=0;resizable=1;" vertex="1" parent="1">
          <mxGeometry x="220" y="20" width="200" height="30" as="geometry" />
        </mxCell>
        <mxCell id="R2dLYAusRlBEIW6N9_9W-3" value="■③タスクを登録" style="text;html=1;align=center;verticalAlign=middle;whiteSpace=wrap;rounded=0;fontFamily=Helvetica;fontSize=16;fontColor=default;fontStyle=1;autosize=0;resizable=1;" vertex="1" parent="1">
          <mxGeometry x="420" y="20" width="150" height="30" as="geometry" />
        </mxCell>
        <mxCell id="R2dLYAusRlBEIW6N9_9W-4" value="■④タスクを確認" style="text;html=1;align=center;verticalAlign=middle;whiteSpace=wrap;rounded=0;fontFamily=Helvetica;fontSize=16;fontColor=default;fontStyle=1;autosize=0;resizable=1;" vertex="1" parent="1">
          <mxGeometry x="560" y="20" width="150" height="30" as="geometry" />
        </mxCell>
        <mxCell id="GN6SkEmU2IWez5dPXdTV-51" value="" style="shape=table;startSize=0;container=1;collapsible=0;childLayout=tableLayout;rounded=1;strokeColor=#d6b656;align=center;verticalAlign=middle;fontFamily=Helvetica;fontSize=12;fontColor=default;fontStyle=1;autosize=0;resizable=1;fillColor=#fff2cc;" vertex="1" parent="1">
          <mxGeometry x="30" y="70" width="770" height="60" as="geometry" />
        </mxCell>
        <mxCell id="GN6SkEmU2IWez5dPXdTV-52" value="" style="shape=tableRow;horizontal=0;startSize=0;swimlaneHead=0;swimlaneBody=0;strokeColor=inherit;top=0;left=0;bottom=0;right=0;collapsible=0;dropTarget=0;fillColor=none;points=[[0,0.5],[1,0.5]];portConstraint=eastwest;rounded=1;align=center;verticalAlign=middle;fontFamily=Helvetica;fontSize=12;fontColor=default;fontStyle=1;autosize=0;resizable=1;" vertex="1" parent="GN6SkEmU2IWez5dPXdTV-51">
          <mxGeometry width="770" height="60" as="geometry" />
        </mxCell>
        <mxCell id="GN6SkEmU2IWez5dPXdTV-53" value="&lt;font style=&quot;font-size: 18px;&quot;&gt;PG&lt;/font&gt;" style="shape=partialRectangle;html=1;whiteSpace=wrap;connectable=0;strokeColor=inherit;overflow=hidden;fillColor=none;top=0;left=0;bottom=0;right=0;pointerEvents=1;rounded=1;align=center;verticalAlign=middle;fontFamily=Helvetica;fontSize=12;fontColor=default;fontStyle=1;autosize=0;resizable=1;" vertex="1" parent="GN6SkEmU2IWez5dPXdTV-52">
          <mxGeometry width="194" height="60" as="geometry">
            <mxRectangle width="194" height="60" as="alternateBounds" />
          </mxGeometry>
        </mxCell>
        <mxCell id="GN6SkEmU2IWez5dPXdTV-54" value="SE" style="shape=partialRectangle;html=1;whiteSpace=wrap;connectable=0;strokeColor=inherit;overflow=hidden;fillColor=none;top=0;left=0;bottom=0;right=0;pointerEvents=1;rounded=1;align=center;verticalAlign=middle;fontFamily=Helvetica;fontSize=18;fontColor=default;fontStyle=1;autosize=0;resizable=1;" vertex="1" parent="GN6SkEmU2IWez5dPXdTV-52">
          <mxGeometry x="194" width="191" height="60" as="geometry">
            <mxRectangle width="191" height="60" as="alternateBounds" />
          </mxGeometry>
        </mxCell>
        <mxCell id="GN6SkEmU2IWez5dPXdTV-55" value="タスク管理システム" style="shape=partialRectangle;html=1;whiteSpace=wrap;connectable=0;strokeColor=inherit;overflow=hidden;fillColor=none;top=0;left=0;bottom=0;right=0;pointerEvents=1;rounded=1;align=center;verticalAlign=middle;fontFamily=Helvetica;fontSize=18;fontColor=default;fontStyle=1;autosize=0;resizable=1;" vertex="1" parent="GN6SkEmU2IWez5dPXdTV-52">
          <mxGeometry x="385" width="194" height="60" as="geometry">
            <mxRectangle width="194" height="60" as="alternateBounds" />
          </mxGeometry>
        </mxCell>
        <mxCell id="GN6SkEmU2IWez5dPXdTV-56" value="ドキュメント管理&lt;div style=&quot;font-size: 18px;&quot;&gt;　（Googleドライブ）&lt;/div&gt;" style="shape=partialRectangle;html=1;whiteSpace=wrap;connectable=0;strokeColor=inherit;overflow=hidden;fillColor=none;top=0;left=0;bottom=0;right=0;pointerEvents=1;rounded=1;align=center;verticalAlign=middle;fontFamily=Helvetica;fontSize=18;fontColor=default;fontStyle=1;autosize=0;resizable=1;" vertex="1" parent="GN6SkEmU2IWez5dPXdTV-52">
          <mxGeometry x="579" width="191" height="60" as="geometry">
            <mxRectangle width="191" height="60" as="alternateBounds" />
          </mxGeometry>
        </mxCell>
        <mxCell id="GN6SkEmU2IWez5dPXdTV-65" value="" style="shape=table;startSize=0;container=1;collapsible=0;childLayout=tableLayout;rounded=1;align=center;verticalAlign=middle;fontFamily=Helvetica;fontSize=12;fontStyle=1;autosize=0;resizable=1;fillColor=#f5f5f5;fontColor=#333333;strokeColor=#666666;" vertex="1" parent="1">
          <mxGeometry x="30" y="130" width="770" height="870" as="geometry" />
        </mxCell>
        <mxCell id="GN6SkEmU2IWez5dPXdTV-66" value="" style="shape=tableRow;horizontal=0;startSize=0;swimlaneHead=0;swimlaneBody=0;strokeColor=inherit;top=0;left=0;bottom=0;right=0;collapsible=0;dropTarget=0;fillColor=none;points=[[0,0.5],[1,0.5]];portConstraint=eastwest;rounded=1;align=center;verticalAlign=middle;fontFamily=Helvetica;fontSize=12;fontColor=default;fontStyle=1;autosize=0;resizable=1;" vertex="1" parent="GN6SkEmU2IWez5dPXdTV-65">
          <mxGeometry width="770" height="870" as="geometry" />
        </mxCell>
        <mxCell id="GN6SkEmU2IWez5dPXdTV-67" value="" style="shape=partialRectangle;html=1;whiteSpace=wrap;connectable=0;strokeColor=inherit;overflow=hidden;fillColor=none;top=0;left=0;bottom=0;right=0;pointerEvents=1;rounded=1;align=center;verticalAlign=middle;fontFamily=Helvetica;fontSize=12;fontColor=default;fontStyle=1;autosize=0;resizable=1;" vertex="1" parent="GN6SkEmU2IWez5dPXdTV-66">
          <mxGeometry width="193" height="870" as="geometry">
            <mxRectangle width="193" height="870" as="alternateBounds" />
          </mxGeometry>
        </mxCell>
        <mxCell id="GN6SkEmU2IWez5dPXdTV-68" value="" style="shape=partialRectangle;html=1;whiteSpace=wrap;connectable=0;strokeColor=inherit;overflow=hidden;fillColor=none;top=0;left=0;bottom=0;right=0;pointerEvents=1;rounded=1;align=center;verticalAlign=middle;fontFamily=Helvetica;fontSize=12;fontColor=default;fontStyle=1;autosize=0;resizable=1;" vertex="1" parent="GN6SkEmU2IWez5dPXdTV-66">
          <mxGeometry x="193" width="192" height="870" as="geometry">
            <mxRectangle width="192" height="870" as="alternateBounds" />
          </mxGeometry>
        </mxCell>
        <mxCell id="GN6SkEmU2IWez5dPXdTV-69" value="" style="shape=partialRectangle;html=1;whiteSpace=wrap;connectable=0;strokeColor=inherit;overflow=hidden;fillColor=none;top=0;left=0;bottom=0;right=0;pointerEvents=1;rounded=1;align=center;verticalAlign=middle;fontFamily=Helvetica;fontSize=12;fontColor=default;fontStyle=1;autosize=0;resizable=1;" vertex="1" parent="GN6SkEmU2IWez5dPXdTV-66">
          <mxGeometry x="385" width="193" height="870" as="geometry">
            <mxRectangle width="193" height="870" as="alternateBounds" />
          </mxGeometry>
        </mxCell>
        <mxCell id="GN6SkEmU2IWez5dPXdTV-70" value="" style="shape=partialRectangle;html=1;whiteSpace=wrap;connectable=0;strokeColor=inherit;overflow=hidden;fillColor=none;top=0;left=0;bottom=0;right=0;pointerEvents=1;rounded=1;align=center;verticalAlign=middle;fontFamily=Helvetica;fontSize=12;fontColor=default;fontStyle=1;autosize=0;resizable=1;" vertex="1" parent="GN6SkEmU2IWez5dPXdTV-66">
          <mxGeometry x="578" width="192" height="870" as="geometry">
            <mxRectangle width="192" height="870" as="alternateBounds" />
          </mxGeometry>
        </mxCell>
        <mxCell id="GN6SkEmU2IWez5dPXdTV-76" style="edgeStyle=orthogonalEdgeStyle;rounded=0;orthogonalLoop=1;jettySize=auto;html=1;entryX=0.5;entryY=0;entryDx=0;entryDy=0;fontFamily=Helvetica;fontSize=12;fontColor=default;fontStyle=1;autosize=0;resizable=1;strokeColor=#FF0000;" edge="1" parent="1" source="GN6SkEmU2IWez5dPXdTV-73" target="GN6SkEmU2IWez5dPXdTV-74">
          <mxGeometry relative="1" as="geometry" />
        </mxCell>
        <mxCell id="GN6SkEmU2IWez5dPXdTV-73" value="" style="ellipse;whiteSpace=wrap;html=1;aspect=fixed;rounded=1;strokeColor=#d6b656;align=center;verticalAlign=middle;fontFamily=Helvetica;fontSize=12;fontColor=default;fontStyle=1;autosize=0;resizable=1;fillColor=#000000;" vertex="1" parent="1">
          <mxGeometry x="300" y="140" width="40" height="40" as="geometry" />
        </mxCell>
        <mxCell id="GN6SkEmU2IWez5dPXdTV-77" style="edgeStyle=orthogonalEdgeStyle;rounded=0;orthogonalLoop=1;jettySize=auto;html=1;fontFamily=Helvetica;fontSize=12;fontColor=default;fontStyle=1;autosize=0;resizable=1;strokeColor=#FF0000;" edge="1" parent="1" source="GN6SkEmU2IWez5dPXdTV-74" target="GN6SkEmU2IWez5dPXdTV-75">
          <mxGeometry relative="1" as="geometry" />
        </mxCell>
        <mxCell id="GN6SkEmU2IWez5dPXdTV-74" value="プロジェクト情報を入力" style="rounded=1;whiteSpace=wrap;html=1;strokeColor=#000000;align=center;verticalAlign=middle;fontFamily=Helvetica;fontSize=16;fontStyle=1;autosize=0;resizable=1;fillColor=#dae8fc;" vertex="1" parent="1">
          <mxGeometry x="240" y="200" width="160" height="60" as="geometry" />
        </mxCell>
        <mxCell id="GN6SkEmU2IWez5dPXdTV-75" value="プロジェクトを登録" style="rounded=1;whiteSpace=wrap;html=1;strokeColor=#000000;align=center;verticalAlign=middle;fontFamily=Helvetica;fontSize=16;fontStyle=1;autosize=0;resizable=1;fillColor=#dae8fc;" vertex="1" parent="1">
          <mxGeometry x="430" y="200" width="160" height="60" as="geometry" />
        </mxCell>
        <mxCell id="Bvu39KkOGPwzPhAHxP9N-5" style="edgeStyle=elbowEdgeStyle;shape=connector;rounded=0;orthogonalLoop=1;jettySize=auto;elbow=vertical;html=1;entryX=0;entryY=0.5;entryDx=0;entryDy=0;strokeColor=#FF0000;align=center;verticalAlign=middle;fontFamily=Helvetica;fontSize=12;fontColor=default;fontStyle=1;labelBackgroundColor=default;autosize=0;resizable=1;endArrow=classic;" edge="1" parent="1" source="Bvu39KkOGPwzPhAHxP9N-1" target="Bvu39KkOGPwzPhAHxP9N-2">
          <mxGeometry relative="1" as="geometry" />
        </mxCell>
        <mxCell id="Bvu39KkOGPwzPhAHxP9N-7" style="edgeStyle=elbowEdgeStyle;shape=connector;rounded=0;orthogonalLoop=1;jettySize=auto;elbow=vertical;html=1;entryX=0.5;entryY=0;entryDx=0;entryDy=0;strokeColor=#FF0000;align=center;verticalAlign=middle;fontFamily=Helvetica;fontSize=12;fontColor=default;fontStyle=1;labelBackgroundColor=default;autosize=0;resizable=1;endArrow=classic;" edge="1" parent="1" source="Bvu39KkOGPwzPhAHxP9N-1" target="Bvu39KkOGPwzPhAHxP9N-6">
          <mxGeometry relative="1" as="geometry" />
        </mxCell>
        <mxCell id="Bvu39KkOGPwzPhAHxP9N-1" value="マイルストーンを入力&lt;div&gt;=&amp;gt;一括入力&lt;/div&gt;" style="rounded=1;whiteSpace=wrap;html=1;strokeColor=#000000;align=center;verticalAlign=middle;fontFamily=Helvetica;fontSize=16;fontStyle=1;autosize=0;resizable=1;fillColor=#dae8fc;" vertex="1" parent="1">
          <mxGeometry x="240" y="310" width="160" height="60" as="geometry" />
        </mxCell>
        <mxCell id="Bvu39KkOGPwzPhAHxP9N-2" value="マイルストーンを一括登録" style="rounded=1;whiteSpace=wrap;html=1;strokeColor=#000000;align=center;verticalAlign=middle;fontFamily=Helvetica;fontSize=16;fontStyle=1;autosize=0;resizable=1;fillColor=#dae8fc;" vertex="1" parent="1">
          <mxGeometry x="430" y="310" width="160" height="60" as="geometry" />
        </mxCell>
        <mxCell id="Bvu39KkOGPwzPhAHxP9N-4" style="edgeStyle=elbowEdgeStyle;rounded=0;orthogonalLoop=1;jettySize=auto;html=1;fontFamily=Helvetica;fontSize=12;fontColor=default;fontStyle=1;autosize=0;resizable=1;entryX=0.5;entryY=0;entryDx=0;entryDy=0;elbow=vertical;strokeColor=#FF0000;" edge="1" parent="1" source="GN6SkEmU2IWez5dPXdTV-75" target="Bvu39KkOGPwzPhAHxP9N-1">
          <mxGeometry relative="1" as="geometry">
            <mxPoint x="320" y="300" as="targetPoint" />
          </mxGeometry>
        </mxCell>
        <mxCell id="Bvu39KkOGPwzPhAHxP9N-10" style="edgeStyle=elbowEdgeStyle;shape=connector;rounded=0;orthogonalLoop=1;jettySize=auto;elbow=vertical;html=1;entryX=0;entryY=0.5;entryDx=0;entryDy=0;strokeColor=#FF0000;align=center;verticalAlign=middle;fontFamily=Helvetica;fontSize=12;fontColor=default;fontStyle=1;labelBackgroundColor=default;autosize=0;resizable=1;endArrow=classic;" edge="1" parent="1" source="Bvu39KkOGPwzPhAHxP9N-6" target="Bvu39KkOGPwzPhAHxP9N-8">
          <mxGeometry relative="1" as="geometry" />
        </mxCell>
        <mxCell id="Bvu39KkOGPwzPhAHxP9N-6" value="設計書をドライブにアップロード" style="rounded=1;whiteSpace=wrap;html=1;strokeColor=#000000;align=center;verticalAlign=middle;fontFamily=Helvetica;fontSize=16;fontStyle=1;autosize=0;resizable=1;fillColor=#dae8fc;" vertex="1" parent="1">
          <mxGeometry x="240" y="420" width="160" height="60" as="geometry" />
        </mxCell>
        <mxCell id="Bvu39KkOGPwzPhAHxP9N-11" style="edgeStyle=elbowEdgeStyle;shape=connector;rounded=0;orthogonalLoop=1;jettySize=auto;elbow=vertical;html=1;entryX=0.5;entryY=0;entryDx=0;entryDy=0;strokeColor=#FF0000;align=center;verticalAlign=middle;fontFamily=Helvetica;fontSize=12;fontColor=default;fontStyle=1;labelBackgroundColor=default;autosize=0;resizable=1;endArrow=classic;" edge="1" parent="1" source="Bvu39KkOGPwzPhAHxP9N-8" target="Bvu39KkOGPwzPhAHxP9N-9">
          <mxGeometry relative="1" as="geometry" />
        </mxCell>
        <mxCell id="Bvu39KkOGPwzPhAHxP9N-8" value="設計ドキュメントを保存して、閲覧URL発行" style="rounded=1;whiteSpace=wrap;html=1;strokeColor=#000000;align=center;verticalAlign=middle;fontFamily=Helvetica;fontSize=16;fontStyle=1;autosize=0;resizable=1;fillColor=#dae8fc;" vertex="1" parent="1">
          <mxGeometry x="620" y="420" width="160" height="60" as="geometry" />
        </mxCell>
        <mxCell id="Bvu39KkOGPwzPhAHxP9N-14" style="edgeStyle=elbowEdgeStyle;shape=connector;rounded=0;orthogonalLoop=1;jettySize=auto;elbow=vertical;html=1;strokeColor=#FF0000;align=center;verticalAlign=middle;fontFamily=Helvetica;fontSize=12;fontColor=default;fontStyle=1;labelBackgroundColor=default;autosize=0;resizable=1;endArrow=classic;" edge="1" parent="1" source="Bvu39KkOGPwzPhAHxP9N-9" target="Bvu39KkOGPwzPhAHxP9N-12">
          <mxGeometry relative="1" as="geometry" />
        </mxCell>
        <mxCell id="Bvu39KkOGPwzPhAHxP9N-9" value="タスク情報を入力（閲覧URLも入力）" style="rounded=1;whiteSpace=wrap;html=1;strokeColor=#000000;align=center;verticalAlign=middle;fontFamily=Helvetica;fontSize=16;fontStyle=1;autosize=0;resizable=1;fillColor=#dae8fc;" vertex="1" parent="1">
          <mxGeometry x="240" y="530" width="160" height="60" as="geometry" />
        </mxCell>
        <mxCell id="Bvu39KkOGPwzPhAHxP9N-15" style="edgeStyle=elbowEdgeStyle;shape=connector;rounded=0;orthogonalLoop=1;jettySize=auto;elbow=vertical;html=1;strokeColor=#FF0000;align=center;verticalAlign=middle;fontFamily=Helvetica;fontSize=12;fontColor=default;fontStyle=1;labelBackgroundColor=default;autosize=0;resizable=1;endArrow=classic;" edge="1" parent="1" source="Bvu39KkOGPwzPhAHxP9N-12" target="Bvu39KkOGPwzPhAHxP9N-13">
          <mxGeometry relative="1" as="geometry" />
        </mxCell>
        <mxCell id="Bvu39KkOGPwzPhAHxP9N-12" value="マイルストーンとタスクを紐づける" style="rounded=1;whiteSpace=wrap;html=1;strokeColor=#000000;align=center;verticalAlign=middle;fontFamily=Helvetica;fontSize=16;fontStyle=1;autosize=0;resizable=1;fillColor=#dae8fc;" vertex="1" parent="1">
          <mxGeometry x="240" y="640" width="160" height="60" as="geometry" />
        </mxCell>
        <mxCell id="YciizC-vwmvVIVQgdyxj-8" style="edgeStyle=elbowEdgeStyle;shape=connector;rounded=0;orthogonalLoop=1;jettySize=auto;elbow=vertical;html=1;strokeColor=#FF0000;align=center;verticalAlign=middle;fontFamily=Helvetica;fontSize=12;fontColor=default;fontStyle=1;labelBackgroundColor=default;autosize=0;resizable=1;endArrow=classic;" edge="1" parent="1" source="Bvu39KkOGPwzPhAHxP9N-13" target="YciizC-vwmvVIVQgdyxj-1">
          <mxGeometry relative="1" as="geometry" />
        </mxCell>
        <mxCell id="Bvu39KkOGPwzPhAHxP9N-13" value="タスクを登録" style="rounded=1;whiteSpace=wrap;html=1;strokeColor=#000000;align=center;verticalAlign=middle;fontFamily=Helvetica;fontSize=16;fontStyle=1;autosize=0;resizable=1;fillColor=#dae8fc;" vertex="1" parent="1">
          <mxGeometry x="430" y="640" width="160" height="60" as="geometry" />
        </mxCell>
        <mxCell id="YciizC-vwmvVIVQgdyxj-9" style="edgeStyle=elbowEdgeStyle;shape=connector;rounded=0;orthogonalLoop=1;jettySize=auto;elbow=vertical;html=1;strokeColor=#FF0000;align=center;verticalAlign=middle;fontFamily=Helvetica;fontSize=12;fontColor=default;fontStyle=1;labelBackgroundColor=default;autosize=0;resizable=1;endArrow=classic;" edge="1" parent="1" source="YciizC-vwmvVIVQgdyxj-1" target="YciizC-vwmvVIVQgdyxj-2">
          <mxGeometry relative="1" as="geometry" />
        </mxCell>
        <mxCell id="YciizC-vwmvVIVQgdyxj-1" value="PGにSlack通知する" style="rounded=1;whiteSpace=wrap;html=1;strokeColor=#000000;align=center;verticalAlign=middle;fontFamily=Helvetica;fontSize=16;fontStyle=1;autosize=0;resizable=1;fillColor=#dae8fc;" vertex="1" parent="1">
          <mxGeometry x="430" y="750" width="160" height="60" as="geometry" />
        </mxCell>
        <mxCell id="YciizC-vwmvVIVQgdyxj-10" style="edgeStyle=elbowEdgeStyle;shape=connector;rounded=0;orthogonalLoop=1;jettySize=auto;elbow=vertical;html=1;entryX=0.5;entryY=0;entryDx=0;entryDy=0;strokeColor=#FF0000;align=center;verticalAlign=middle;fontFamily=Helvetica;fontSize=12;fontColor=default;fontStyle=1;labelBackgroundColor=default;autosize=0;resizable=1;endArrow=classic;" edge="1" parent="1" source="YciizC-vwmvVIVQgdyxj-2" target="YciizC-vwmvVIVQgdyxj-3">
          <mxGeometry relative="1" as="geometry" />
        </mxCell>
        <mxCell id="YciizC-vwmvVIVQgdyxj-2" value="タスク割り当ての通知を受け取る" style="rounded=1;whiteSpace=wrap;html=1;strokeColor=#000000;align=center;verticalAlign=middle;fontFamily=Helvetica;fontSize=16;fontStyle=1;autosize=0;resizable=1;fillColor=#dae8fc;" vertex="1" parent="1">
          <mxGeometry x="50" y="750" width="160" height="60" as="geometry" />
        </mxCell>
        <mxCell id="YciizC-vwmvVIVQgdyxj-11" style="edgeStyle=elbowEdgeStyle;shape=connector;rounded=0;orthogonalLoop=1;jettySize=auto;elbow=vertical;html=1;strokeColor=#FF0000;align=center;verticalAlign=middle;fontFamily=Helvetica;fontSize=12;fontColor=default;fontStyle=1;labelBackgroundColor=default;autosize=0;resizable=1;endArrow=classic;" edge="1" parent="1" source="YciizC-vwmvVIVQgdyxj-3" target="YciizC-vwmvVIVQgdyxj-5">
          <mxGeometry relative="1" as="geometry" />
        </mxCell>
        <mxCell id="YciizC-vwmvVIVQgdyxj-3" value="タスク詳細のリンクをクリック" style="rounded=1;whiteSpace=wrap;html=1;strokeColor=#000000;align=center;verticalAlign=middle;fontFamily=Helvetica;fontSize=16;fontStyle=1;autosize=0;resizable=1;fillColor=#dae8fc;" vertex="1" parent="1">
          <mxGeometry x="50" y="860" width="160" height="60" as="geometry" />
        </mxCell>
        <mxCell id="YciizC-vwmvVIVQgdyxj-4" style="edgeStyle=elbowEdgeStyle;shape=connector;rounded=0;orthogonalLoop=1;jettySize=auto;elbow=vertical;html=1;exitX=1;exitY=0.5;exitDx=0;exitDy=0;strokeColor=#FF0000;align=center;verticalAlign=middle;fontFamily=Helvetica;fontSize=12;fontColor=default;fontStyle=1;labelBackgroundColor=default;autosize=0;resizable=1;endArrow=classic;" edge="1" parent="1" source="YciizC-vwmvVIVQgdyxj-3" target="YciizC-vwmvVIVQgdyxj-3">
          <mxGeometry relative="1" as="geometry" />
        </mxCell>
        <mxCell id="YciizC-vwmvVIVQgdyxj-7" style="edgeStyle=elbowEdgeStyle;shape=connector;rounded=0;orthogonalLoop=1;jettySize=auto;elbow=vertical;html=1;entryX=0.5;entryY=0;entryDx=0;entryDy=0;strokeColor=#FF0000;align=center;verticalAlign=middle;fontFamily=Helvetica;fontSize=12;fontColor=default;fontStyle=1;labelBackgroundColor=default;autosize=0;resizable=1;endArrow=classic;" edge="1" parent="1" source="YciizC-vwmvVIVQgdyxj-5" target="YciizC-vwmvVIVQgdyxj-6">
          <mxGeometry relative="1" as="geometry" />
        </mxCell>
        <mxCell id="YciizC-vwmvVIVQgdyxj-5" value="タスクを表示" style="rounded=1;whiteSpace=wrap;html=1;strokeColor=#000000;align=center;verticalAlign=middle;fontFamily=Helvetica;fontSize=16;fontStyle=1;autosize=0;resizable=1;fillColor=#dae8fc;" vertex="1" parent="1">
          <mxGeometry x="430" y="860" width="160" height="60" as="geometry" />
        </mxCell>
        <mxCell id="YciizC-vwmvVIVQgdyxj-6" value="" style="ellipse;html=1;shape=endState;fillColor=strokeColor;rounded=1;strokeColor=#000000;align=center;verticalAlign=middle;fontFamily=Helvetica;fontSize=12;fontColor=default;fontStyle=1;labelBackgroundColor=default;autosize=0;resizable=1;" vertex="1" parent="1">
          <mxGeometry x="495" y="960" width="30" height="30" as="geometry" />
        </mxCell>
        <mxCell id="YciizC-vwmvVIVQgdyxj-12" value="■⑤ステータス変更" style="text;html=1;align=center;verticalAlign=middle;whiteSpace=wrap;rounded=0;fontFamily=Helvetica;fontSize=16;fontColor=default;fontStyle=1;autosize=0;resizable=1;" vertex="1" parent="1">
          <mxGeometry x="850" y="20" width="180" height="30" as="geometry" />
        </mxCell>
        <mxCell id="YciizC-vwmvVIVQgdyxj-13" value="■⑥進捗を管理" style="text;html=1;align=center;verticalAlign=middle;whiteSpace=wrap;rounded=0;fontFamily=Helvetica;fontSize=16;fontColor=default;fontStyle=1;autosize=0;resizable=1;" vertex="1" parent="1">
          <mxGeometry x="1040" y="20" width="200" height="30" as="geometry" />
        </mxCell>
        <mxCell id="YciizC-vwmvVIVQgdyxj-16" value="" style="shape=table;startSize=0;container=1;collapsible=0;childLayout=tableLayout;rounded=1;strokeColor=#d6b656;align=center;verticalAlign=middle;fontFamily=Helvetica;fontSize=12;fontColor=default;fontStyle=1;autosize=0;resizable=1;fillColor=#fff2cc;" vertex="1" parent="1">
          <mxGeometry x="850" y="70" width="770" height="60" as="geometry" />
        </mxCell>
        <mxCell id="YciizC-vwmvVIVQgdyxj-17" value="" style="shape=tableRow;horizontal=0;startSize=0;swimlaneHead=0;swimlaneBody=0;strokeColor=inherit;top=0;left=0;bottom=0;right=0;collapsible=0;dropTarget=0;fillColor=none;points=[[0,0.5],[1,0.5]];portConstraint=eastwest;rounded=1;align=center;verticalAlign=middle;fontFamily=Helvetica;fontSize=12;fontColor=default;fontStyle=1;autosize=0;resizable=1;" vertex="1" parent="YciizC-vwmvVIVQgdyxj-16">
          <mxGeometry width="770" height="60" as="geometry" />
        </mxCell>
        <mxCell id="YciizC-vwmvVIVQgdyxj-18" value="&lt;font style=&quot;font-size: 18px;&quot;&gt;PG&lt;/font&gt;" style="shape=partialRectangle;html=1;whiteSpace=wrap;connectable=0;strokeColor=inherit;overflow=hidden;fillColor=none;top=0;left=0;bottom=0;right=0;pointerEvents=1;rounded=1;align=center;verticalAlign=middle;fontFamily=Helvetica;fontSize=12;fontColor=default;fontStyle=1;autosize=0;resizable=1;" vertex="1" parent="YciizC-vwmvVIVQgdyxj-17">
          <mxGeometry width="194" height="60" as="geometry">
            <mxRectangle width="194" height="60" as="alternateBounds" />
          </mxGeometry>
        </mxCell>
        <mxCell id="YciizC-vwmvVIVQgdyxj-19" value="SE" style="shape=partialRectangle;html=1;whiteSpace=wrap;connectable=0;strokeColor=inherit;overflow=hidden;fillColor=none;top=0;left=0;bottom=0;right=0;pointerEvents=1;rounded=1;align=center;verticalAlign=middle;fontFamily=Helvetica;fontSize=18;fontColor=default;fontStyle=1;autosize=0;resizable=1;" vertex="1" parent="YciizC-vwmvVIVQgdyxj-17">
          <mxGeometry x="194" width="191" height="60" as="geometry">
            <mxRectangle width="191" height="60" as="alternateBounds" />
          </mxGeometry>
        </mxCell>
        <mxCell id="YciizC-vwmvVIVQgdyxj-20" value="タスク管理システム" style="shape=partialRectangle;html=1;whiteSpace=wrap;connectable=0;strokeColor=inherit;overflow=hidden;fillColor=none;top=0;left=0;bottom=0;right=0;pointerEvents=1;rounded=1;align=center;verticalAlign=middle;fontFamily=Helvetica;fontSize=18;fontColor=default;fontStyle=1;autosize=0;resizable=1;" vertex="1" parent="YciizC-vwmvVIVQgdyxj-17">
          <mxGeometry x="385" width="194" height="60" as="geometry">
            <mxRectangle width="194" height="60" as="alternateBounds" />
          </mxGeometry>
        </mxCell>
        <mxCell id="YciizC-vwmvVIVQgdyxj-21" value="GitHub" style="shape=partialRectangle;html=1;whiteSpace=wrap;connectable=0;strokeColor=inherit;overflow=hidden;fillColor=none;top=0;left=0;bottom=0;right=0;pointerEvents=1;rounded=1;align=center;verticalAlign=middle;fontFamily=Helvetica;fontSize=18;fontColor=default;fontStyle=1;autosize=0;resizable=1;" vertex="1" parent="YciizC-vwmvVIVQgdyxj-17">
          <mxGeometry x="579" width="191" height="60" as="geometry">
            <mxRectangle width="191" height="60" as="alternateBounds" />
          </mxGeometry>
        </mxCell>
        <mxCell id="YciizC-vwmvVIVQgdyxj-22" value="" style="shape=table;startSize=0;container=1;collapsible=0;childLayout=tableLayout;rounded=1;align=center;verticalAlign=middle;fontFamily=Helvetica;fontSize=12;fontStyle=1;autosize=0;resizable=1;fillColor=#f5f5f5;fontColor=#333333;strokeColor=#666666;" vertex="1" parent="1">
          <mxGeometry x="850" y="130" width="770" height="1070" as="geometry" />
        </mxCell>
        <mxCell id="YciizC-vwmvVIVQgdyxj-23" value="" style="shape=tableRow;horizontal=0;startSize=0;swimlaneHead=0;swimlaneBody=0;strokeColor=inherit;top=0;left=0;bottom=0;right=0;collapsible=0;dropTarget=0;fillColor=none;points=[[0,0.5],[1,0.5]];portConstraint=eastwest;rounded=1;align=center;verticalAlign=middle;fontFamily=Helvetica;fontSize=12;fontColor=default;fontStyle=1;autosize=0;resizable=1;" vertex="1" parent="YciizC-vwmvVIVQgdyxj-22">
          <mxGeometry width="770" height="1070" as="geometry" />
        </mxCell>
        <mxCell id="YciizC-vwmvVIVQgdyxj-24" value="" style="shape=partialRectangle;html=1;whiteSpace=wrap;connectable=0;strokeColor=inherit;overflow=hidden;fillColor=none;top=0;left=0;bottom=0;right=0;pointerEvents=1;rounded=1;align=center;verticalAlign=middle;fontFamily=Helvetica;fontSize=12;fontColor=default;fontStyle=1;autosize=0;resizable=1;" vertex="1" parent="YciizC-vwmvVIVQgdyxj-23">
          <mxGeometry width="193" height="1070" as="geometry">
            <mxRectangle width="193" height="1070" as="alternateBounds" />
          </mxGeometry>
        </mxCell>
        <mxCell id="YciizC-vwmvVIVQgdyxj-25" value="" style="shape=partialRectangle;html=1;whiteSpace=wrap;connectable=0;strokeColor=inherit;overflow=hidden;fillColor=none;top=0;left=0;bottom=0;right=0;pointerEvents=1;rounded=1;align=center;verticalAlign=middle;fontFamily=Helvetica;fontSize=12;fontColor=default;fontStyle=1;autosize=0;resizable=1;" vertex="1" parent="YciizC-vwmvVIVQgdyxj-23">
          <mxGeometry x="193" width="192" height="1070" as="geometry">
            <mxRectangle width="192" height="1070" as="alternateBounds" />
          </mxGeometry>
        </mxCell>
        <mxCell id="YciizC-vwmvVIVQgdyxj-26" value="" style="shape=partialRectangle;html=1;whiteSpace=wrap;connectable=0;strokeColor=inherit;overflow=hidden;fillColor=none;top=0;left=0;bottom=0;right=0;pointerEvents=1;rounded=1;align=center;verticalAlign=middle;fontFamily=Helvetica;fontSize=12;fontColor=default;fontStyle=1;autosize=0;resizable=1;" vertex="1" parent="YciizC-vwmvVIVQgdyxj-23">
          <mxGeometry x="385" width="193" height="1070" as="geometry">
            <mxRectangle width="193" height="1070" as="alternateBounds" />
          </mxGeometry>
        </mxCell>
        <mxCell id="YciizC-vwmvVIVQgdyxj-27" value="" style="shape=partialRectangle;html=1;whiteSpace=wrap;connectable=0;strokeColor=inherit;overflow=hidden;fillColor=none;top=0;left=0;bottom=0;right=0;pointerEvents=1;rounded=1;align=center;verticalAlign=middle;fontFamily=Helvetica;fontSize=12;fontColor=default;fontStyle=1;autosize=0;resizable=1;" vertex="1" parent="YciizC-vwmvVIVQgdyxj-23">
          <mxGeometry x="578" width="192" height="1070" as="geometry">
            <mxRectangle width="192" height="1070" as="alternateBounds" />
          </mxGeometry>
        </mxCell>
        <mxCell id="YciizC-vwmvVIVQgdyxj-107" style="edgeStyle=elbowEdgeStyle;shape=connector;rounded=0;orthogonalLoop=1;jettySize=auto;elbow=vertical;html=1;strokeColor=#FF0000;align=center;verticalAlign=middle;fontFamily=Helvetica;fontSize=12;fontColor=default;fontStyle=1;labelBackgroundColor=default;autosize=0;resizable=1;endArrow=classic;" edge="1" parent="1" source="YciizC-vwmvVIVQgdyxj-100" target="YciizC-vwmvVIVQgdyxj-104">
          <mxGeometry relative="1" as="geometry" />
        </mxCell>
        <mxCell id="YciizC-vwmvVIVQgdyxj-100" value="作業を開始&lt;div&gt;ステータスを選択&lt;/div&gt;" style="rounded=1;whiteSpace=wrap;html=1;strokeColor=#000000;align=center;verticalAlign=middle;fontFamily=Helvetica;fontSize=16;fontStyle=1;autosize=0;resizable=1;fillColor=#dae8fc;" vertex="1" parent="1">
          <mxGeometry x="870" y="200" width="160" height="60" as="geometry" />
        </mxCell>
        <mxCell id="YciizC-vwmvVIVQgdyxj-103" style="edgeStyle=elbowEdgeStyle;shape=connector;rounded=0;orthogonalLoop=1;jettySize=auto;elbow=vertical;html=1;strokeColor=#FF0000;align=center;verticalAlign=middle;fontFamily=Helvetica;fontSize=12;fontColor=default;fontStyle=1;labelBackgroundColor=default;autosize=0;resizable=1;endArrow=classic;" edge="1" parent="1" source="YciizC-vwmvVIVQgdyxj-102" target="YciizC-vwmvVIVQgdyxj-100">
          <mxGeometry relative="1" as="geometry" />
        </mxCell>
        <mxCell id="YciizC-vwmvVIVQgdyxj-102" value="" style="ellipse;whiteSpace=wrap;html=1;aspect=fixed;rounded=1;strokeColor=#d6b656;align=center;verticalAlign=middle;fontFamily=Helvetica;fontSize=12;fontColor=default;fontStyle=1;autosize=0;resizable=1;fillColor=#000000;" vertex="1" parent="1">
          <mxGeometry x="930" y="140" width="40" height="40" as="geometry" />
        </mxCell>
        <mxCell id="YciizC-vwmvVIVQgdyxj-108" style="edgeStyle=elbowEdgeStyle;shape=connector;rounded=0;orthogonalLoop=1;jettySize=auto;elbow=vertical;html=1;entryX=0.5;entryY=0;entryDx=0;entryDy=0;strokeColor=#FF0000;align=center;verticalAlign=middle;fontFamily=Helvetica;fontSize=12;fontColor=default;fontStyle=1;labelBackgroundColor=default;autosize=0;resizable=1;endArrow=classic;" edge="1" parent="1" source="YciizC-vwmvVIVQgdyxj-104" target="YciizC-vwmvVIVQgdyxj-105">
          <mxGeometry relative="1" as="geometry" />
        </mxCell>
        <mxCell id="YciizC-vwmvVIVQgdyxj-104" value="ステータス変更&lt;div&gt;未着手 =&amp;gt; 作業中&lt;/div&gt;" style="rounded=1;whiteSpace=wrap;html=1;strokeColor=#000000;align=center;verticalAlign=middle;fontFamily=Helvetica;fontSize=16;fontStyle=1;autosize=0;resizable=1;fillColor=#dae8fc;" vertex="1" parent="1">
          <mxGeometry x="1250" y="200" width="160" height="60" as="geometry" />
        </mxCell>
        <mxCell id="YciizC-vwmvVIVQgdyxj-111" style="edgeStyle=elbowEdgeStyle;shape=connector;rounded=0;orthogonalLoop=1;jettySize=auto;elbow=vertical;html=1;entryX=0.5;entryY=0;entryDx=0;entryDy=0;strokeColor=#FF0000;align=center;verticalAlign=middle;fontFamily=Helvetica;fontSize=12;fontColor=default;fontStyle=1;labelBackgroundColor=default;autosize=0;resizable=1;endArrow=classic;" edge="1" parent="1" source="YciizC-vwmvVIVQgdyxj-105" target="YciizC-vwmvVIVQgdyxj-106">
          <mxGeometry relative="1" as="geometry" />
        </mxCell>
        <mxCell id="YciizC-vwmvVIVQgdyxj-105" value="コーディング" style="rounded=1;whiteSpace=wrap;html=1;strokeColor=#000000;align=center;verticalAlign=middle;fontFamily=Helvetica;fontSize=16;fontStyle=1;autosize=0;resizable=1;fillColor=#dae8fc;" vertex="1" parent="1">
          <mxGeometry x="870" y="300" width="160" height="60" as="geometry" />
        </mxCell>
        <mxCell id="YciizC-vwmvVIVQgdyxj-114" style="edgeStyle=elbowEdgeStyle;shape=connector;rounded=0;orthogonalLoop=1;jettySize=auto;elbow=vertical;html=1;strokeColor=#FF0000;align=center;verticalAlign=middle;fontFamily=Helvetica;fontSize=12;fontColor=default;fontStyle=1;labelBackgroundColor=default;autosize=0;resizable=1;endArrow=classic;" edge="1" parent="1" source="YciizC-vwmvVIVQgdyxj-106" target="YciizC-vwmvVIVQgdyxj-112">
          <mxGeometry relative="1" as="geometry" />
        </mxCell>
        <mxCell id="YciizC-vwmvVIVQgdyxj-106" value="GitHubにプッシュ&lt;div&gt;（プルリク作成）&lt;/div&gt;" style="rounded=1;whiteSpace=wrap;html=1;strokeColor=#000000;align=center;verticalAlign=middle;fontFamily=Helvetica;fontSize=16;fontStyle=1;autosize=0;resizable=1;fillColor=#dae8fc;" vertex="1" parent="1">
          <mxGeometry x="870" y="400" width="160" height="60" as="geometry" />
        </mxCell>
        <mxCell id="1me-ID9ktgnD6JXUDjLw-6" style="edgeStyle=elbowEdgeStyle;shape=connector;rounded=0;orthogonalLoop=1;jettySize=auto;elbow=vertical;html=1;entryX=1;entryY=0.5;entryDx=0;entryDy=0;strokeColor=#FF0000;align=center;verticalAlign=middle;fontFamily=Helvetica;fontSize=12;fontColor=default;fontStyle=1;labelBackgroundColor=default;autosize=0;resizable=1;endArrow=classic;exitX=0.5;exitY=1;exitDx=0;exitDy=0;" edge="1" parent="1" source="YciizC-vwmvVIVQgdyxj-109" target="1me-ID9ktgnD6JXUDjLw-1">
          <mxGeometry relative="1" as="geometry">
            <Array as="points">
              <mxPoint x="1280" y="680" />
            </Array>
          </mxGeometry>
        </mxCell>
        <mxCell id="YciizC-vwmvVIVQgdyxj-109" value="ステータス変更&lt;div&gt;&lt;span style=&quot;background-color: initial;&quot;&gt;作業中&amp;nbsp; =&amp;gt; レビュー依頼中&lt;/span&gt;&lt;/div&gt;" style="rounded=1;whiteSpace=wrap;html=1;strokeColor=#000000;align=center;verticalAlign=middle;fontFamily=Helvetica;fontSize=16;fontStyle=1;autosize=0;resizable=1;fillColor=#dae8fc;" vertex="1" parent="1">
          <mxGeometry x="1245" y="570" width="170" height="60" as="geometry" />
        </mxCell>
        <mxCell id="1me-ID9ktgnD6JXUDjLw-13" style="edgeStyle=elbowEdgeStyle;shape=connector;rounded=0;orthogonalLoop=1;jettySize=auto;elbow=vertical;html=1;strokeColor=#FF0000;align=center;verticalAlign=middle;fontFamily=Helvetica;fontSize=12;fontColor=default;fontStyle=1;labelBackgroundColor=default;autosize=0;resizable=1;endArrow=classic;" edge="1" parent="1" source="YciizC-vwmvVIVQgdyxj-110" target="1me-ID9ktgnD6JXUDjLw-9">
          <mxGeometry relative="1" as="geometry" />
        </mxCell>
        <mxCell id="YciizC-vwmvVIVQgdyxj-110" value="ステータス変更&lt;div&gt;&lt;span style=&quot;background-color: initial;&quot;&gt;レビュー中 =&amp;gt; 完了&lt;/span&gt;&lt;/div&gt;" style="rounded=1;whiteSpace=wrap;html=1;strokeColor=#000000;align=center;verticalAlign=middle;fontFamily=Helvetica;fontSize=16;fontStyle=1;autosize=0;resizable=1;fillColor=#dae8fc;" vertex="1" parent="1">
          <mxGeometry x="1250" y="740" width="160" height="60" as="geometry" />
        </mxCell>
        <mxCell id="YciizC-vwmvVIVQgdyxj-117" style="edgeStyle=elbowEdgeStyle;shape=connector;rounded=0;orthogonalLoop=1;jettySize=auto;elbow=vertical;html=1;strokeColor=#FF0000;align=center;verticalAlign=middle;fontFamily=Helvetica;fontSize=12;fontColor=default;fontStyle=1;labelBackgroundColor=default;autosize=0;resizable=1;endArrow=classic;" edge="1" parent="1" source="YciizC-vwmvVIVQgdyxj-112">
          <mxGeometry relative="1" as="geometry">
            <mxPoint x="1030" y="330" as="targetPoint" />
            <Array as="points">
              <mxPoint x="1290" y="330" />
            </Array>
          </mxGeometry>
        </mxCell>
        <mxCell id="YciizC-vwmvVIVQgdyxj-118" value="NG" style="edgeLabel;html=1;align=center;verticalAlign=middle;resizable=0;points=[];rounded=1;strokeColor=#d6b656;fontFamily=Helvetica;fontSize=16;fontColor=default;fontStyle=1;labelBackgroundColor=default;autosize=0;fillColor=#fff2cc;" vertex="1" connectable="0" parent="YciizC-vwmvVIVQgdyxj-117">
          <mxGeometry x="-0.9034" y="-2" relative="1" as="geometry">
            <mxPoint x="18" y="22" as="offset" />
          </mxGeometry>
        </mxCell>
        <mxCell id="YciizC-vwmvVIVQgdyxj-124" style="edgeStyle=elbowEdgeStyle;shape=connector;rounded=0;orthogonalLoop=1;jettySize=auto;elbow=vertical;html=1;entryX=1;entryY=0.5;entryDx=0;entryDy=0;strokeColor=#FF0000;align=center;verticalAlign=middle;fontFamily=Helvetica;fontSize=12;fontColor=default;fontStyle=1;labelBackgroundColor=default;autosize=0;resizable=1;endArrow=classic;" edge="1" parent="1" source="YciizC-vwmvVIVQgdyxj-112" target="YciizC-vwmvVIVQgdyxj-123">
          <mxGeometry relative="1" as="geometry">
            <Array as="points">
              <mxPoint x="1280" y="530" />
            </Array>
          </mxGeometry>
        </mxCell>
        <mxCell id="YciizC-vwmvVIVQgdyxj-125" value="&lt;font style=&quot;font-size: 16px;&quot;&gt;OK&lt;/font&gt;" style="edgeLabel;html=1;align=center;verticalAlign=middle;resizable=0;points=[];rounded=1;strokeColor=#d6b656;fontFamily=Helvetica;fontSize=12;fontColor=default;fontStyle=1;labelBackgroundColor=default;autosize=0;fillColor=#fff2cc;" vertex="1" connectable="0" parent="YciizC-vwmvVIVQgdyxj-124">
          <mxGeometry x="-0.8971" y="-2" relative="1" as="geometry">
            <mxPoint x="22" y="-24" as="offset" />
          </mxGeometry>
        </mxCell>
        <mxCell id="YciizC-vwmvVIVQgdyxj-112" value="自動テスト" style="rhombus;whiteSpace=wrap;html=1;rounded=1;align=center;verticalAlign=middle;fontFamily=Helvetica;fontSize=16;fontStyle=1;labelBackgroundColor=none;autosize=0;resizable=1;fillColor=#dae8fc;strokeColor=#000000;" vertex="1" parent="1">
          <mxGeometry x="1470" y="385" width="120" height="90" as="geometry" />
        </mxCell>
        <mxCell id="1me-ID9ktgnD6JXUDjLw-8" style="edgeStyle=elbowEdgeStyle;shape=connector;rounded=0;orthogonalLoop=1;jettySize=auto;elbow=vertical;html=1;entryX=0;entryY=0.5;entryDx=0;entryDy=0;strokeColor=#FF0000;align=center;verticalAlign=middle;fontFamily=Helvetica;fontSize=12;fontColor=default;fontStyle=1;labelBackgroundColor=default;autosize=0;resizable=1;endArrow=classic;" edge="1" parent="1" source="YciizC-vwmvVIVQgdyxj-123" target="YciizC-vwmvVIVQgdyxj-109">
          <mxGeometry relative="1" as="geometry">
            <Array as="points">
              <mxPoint x="1100" y="600" />
            </Array>
          </mxGeometry>
        </mxCell>
        <mxCell id="YciizC-vwmvVIVQgdyxj-123" value="SEにレビューを依頼&lt;div&gt;ステータス変更&lt;/div&gt;" style="rounded=1;whiteSpace=wrap;html=1;strokeColor=#000000;align=center;verticalAlign=middle;fontFamily=Helvetica;fontSize=16;fontStyle=1;autosize=0;resizable=1;fillColor=#dae8fc;" vertex="1" parent="1">
          <mxGeometry x="870" y="500" width="160" height="60" as="geometry" />
        </mxCell>
        <mxCell id="1me-ID9ktgnD6JXUDjLw-7" style="edgeStyle=elbowEdgeStyle;shape=connector;rounded=0;orthogonalLoop=1;jettySize=auto;elbow=vertical;html=1;entryX=0;entryY=0.5;entryDx=0;entryDy=0;strokeColor=#FF0000;align=center;verticalAlign=middle;fontFamily=Helvetica;fontSize=12;fontColor=default;fontStyle=1;labelBackgroundColor=default;autosize=0;resizable=1;endArrow=classic;" edge="1" parent="1" source="1me-ID9ktgnD6JXUDjLw-1" target="YciizC-vwmvVIVQgdyxj-110">
          <mxGeometry relative="1" as="geometry">
            <Array as="points">
              <mxPoint x="1140" y="770" />
            </Array>
          </mxGeometry>
        </mxCell>
        <mxCell id="1me-ID9ktgnD6JXUDjLw-1" value="ステータス変更&lt;div&gt;&lt;span style=&quot;background-color: initial;&quot;&gt;作業中&amp;nbsp; =&amp;gt; レビュー依頼中&lt;/span&gt;&lt;/div&gt;" style="rounded=1;whiteSpace=wrap;html=1;strokeColor=#000000;align=center;verticalAlign=middle;fontFamily=Helvetica;fontSize=16;fontStyle=1;autosize=0;resizable=1;fillColor=#dae8fc;" vertex="1" parent="1">
          <mxGeometry x="1055" y="650" width="170" height="60" as="geometry" />
        </mxCell>
        <mxCell id="1me-ID9ktgnD6JXUDjLw-14" style="edgeStyle=elbowEdgeStyle;shape=connector;rounded=0;orthogonalLoop=1;jettySize=auto;elbow=vertical;html=1;entryX=0;entryY=0.5;entryDx=0;entryDy=0;strokeColor=#FF0000;align=center;verticalAlign=middle;fontFamily=Helvetica;fontSize=12;fontColor=default;fontStyle=1;labelBackgroundColor=default;autosize=0;resizable=1;endArrow=classic;" edge="1" parent="1" source="1me-ID9ktgnD6JXUDjLw-9" target="1me-ID9ktgnD6JXUDjLw-12">
          <mxGeometry relative="1" as="geometry" />
        </mxCell>
        <mxCell id="1me-ID9ktgnD6JXUDjLw-9" value="レビュー完了" style="rounded=1;whiteSpace=wrap;html=1;strokeColor=#000000;align=center;verticalAlign=middle;fontFamily=Helvetica;fontSize=16;fontStyle=1;autosize=0;resizable=1;fillColor=#dae8fc;" vertex="1" parent="1">
          <mxGeometry x="1055" y="840" width="170" height="60" as="geometry" />
        </mxCell>
        <mxCell id="1me-ID9ktgnD6JXUDjLw-18" style="edgeStyle=elbowEdgeStyle;shape=connector;rounded=0;orthogonalLoop=1;jettySize=auto;elbow=vertical;html=1;entryX=0.5;entryY=0;entryDx=0;entryDy=0;strokeColor=#FF0000;align=center;verticalAlign=middle;fontFamily=Helvetica;fontSize=12;fontColor=default;fontStyle=1;labelBackgroundColor=default;autosize=0;resizable=1;endArrow=classic;" edge="1" parent="1" source="1me-ID9ktgnD6JXUDjLw-12" target="1me-ID9ktgnD6JXUDjLw-15">
          <mxGeometry relative="1" as="geometry" />
        </mxCell>
        <mxCell id="1me-ID9ktgnD6JXUDjLw-12" value="プルリクエスト承認" style="rounded=1;whiteSpace=wrap;html=1;strokeColor=#000000;align=center;verticalAlign=middle;fontFamily=Helvetica;fontSize=16;fontStyle=1;autosize=0;resizable=1;fillColor=#dae8fc;" vertex="1" parent="1">
          <mxGeometry x="1440" y="840" width="170" height="60" as="geometry" />
        </mxCell>
        <mxCell id="1me-ID9ktgnD6JXUDjLw-19" style="edgeStyle=elbowEdgeStyle;shape=connector;rounded=0;orthogonalLoop=1;jettySize=auto;elbow=vertical;html=1;entryX=0;entryY=0.5;entryDx=0;entryDy=0;strokeColor=#FF0000;align=center;verticalAlign=middle;fontFamily=Helvetica;fontSize=12;fontColor=default;fontStyle=1;labelBackgroundColor=default;autosize=0;resizable=1;endArrow=classic;" edge="1" parent="1" source="1me-ID9ktgnD6JXUDjLw-15" target="1me-ID9ktgnD6JXUDjLw-17">
          <mxGeometry relative="1" as="geometry" />
        </mxCell>
        <mxCell id="1me-ID9ktgnD6JXUDjLw-15" value="通知を受け取る" style="rounded=1;whiteSpace=wrap;html=1;strokeColor=#000000;align=center;verticalAlign=middle;fontFamily=Helvetica;fontSize=16;fontStyle=1;autosize=0;resizable=1;fillColor=#dae8fc;" vertex="1" parent="1">
          <mxGeometry x="860" y="930" width="170" height="60" as="geometry" />
        </mxCell>
        <mxCell id="1me-ID9ktgnD6JXUDjLw-22" style="edgeStyle=elbowEdgeStyle;shape=connector;rounded=0;orthogonalLoop=1;jettySize=auto;elbow=vertical;html=1;entryX=0.5;entryY=0;entryDx=0;entryDy=0;strokeColor=#FF0000;align=center;verticalAlign=middle;fontFamily=Helvetica;fontSize=12;fontColor=default;fontStyle=1;labelBackgroundColor=default;autosize=0;resizable=1;endArrow=classic;" edge="1" parent="1" source="1me-ID9ktgnD6JXUDjLw-17" target="1me-ID9ktgnD6JXUDjLw-20">
          <mxGeometry relative="1" as="geometry" />
        </mxCell>
        <mxCell id="1me-ID9ktgnD6JXUDjLw-17" value="ステータス変更&lt;div&gt;レビュー中&amp;nbsp; =&amp;gt; 完了&lt;/div&gt;" style="rounded=1;whiteSpace=wrap;html=1;strokeColor=#000000;align=center;verticalAlign=middle;fontFamily=Helvetica;fontSize=16;fontStyle=1;autosize=0;resizable=1;fillColor=#dae8fc;" vertex="1" parent="1">
          <mxGeometry x="1245" y="930" width="170" height="60" as="geometry" />
        </mxCell>
        <mxCell id="1me-ID9ktgnD6JXUDjLw-24" style="edgeStyle=elbowEdgeStyle;shape=connector;rounded=0;orthogonalLoop=1;jettySize=auto;elbow=vertical;html=1;strokeColor=#FF0000;align=center;verticalAlign=middle;fontFamily=Helvetica;fontSize=12;fontColor=default;fontStyle=1;labelBackgroundColor=default;autosize=0;resizable=1;endArrow=classic;" edge="1" parent="1" source="1me-ID9ktgnD6JXUDjLw-20" target="1me-ID9ktgnD6JXUDjLw-21">
          <mxGeometry relative="1" as="geometry" />
        </mxCell>
        <mxCell id="1me-ID9ktgnD6JXUDjLw-20" value="（任意のタイミング）&lt;div&gt;進捗をチェック&lt;/div&gt;" style="rounded=1;whiteSpace=wrap;html=1;strokeColor=#000000;align=center;verticalAlign=middle;fontFamily=Helvetica;fontSize=16;fontStyle=1;autosize=0;resizable=1;fillColor=#dae8fc;" vertex="1" parent="1">
          <mxGeometry x="1055" y="1030" width="170" height="60" as="geometry" />
        </mxCell>
        <mxCell id="1me-ID9ktgnD6JXUDjLw-26" style="edgeStyle=elbowEdgeStyle;shape=connector;rounded=0;orthogonalLoop=1;jettySize=auto;elbow=vertical;html=1;entryX=0.5;entryY=0;entryDx=0;entryDy=0;strokeColor=#FF0000;align=center;verticalAlign=middle;fontFamily=Helvetica;fontSize=12;fontColor=default;fontStyle=1;labelBackgroundColor=default;autosize=0;resizable=1;endArrow=classic;" edge="1" parent="1" source="1me-ID9ktgnD6JXUDjLw-21" target="1me-ID9ktgnD6JXUDjLw-25">
          <mxGeometry relative="1" as="geometry" />
        </mxCell>
        <mxCell id="1me-ID9ktgnD6JXUDjLw-21" value="マイルストーン内のタスク完了割合を％表示（個人別、全体）" style="rounded=1;whiteSpace=wrap;html=1;strokeColor=#000000;align=center;verticalAlign=middle;fontFamily=Helvetica;fontSize=16;fontStyle=1;autosize=0;resizable=1;fillColor=#dae8fc;" vertex="1" parent="1">
          <mxGeometry x="1245" y="1030" width="170" height="60" as="geometry" />
        </mxCell>
        <mxCell id="1me-ID9ktgnD6JXUDjLw-23" style="edgeStyle=elbowEdgeStyle;shape=connector;rounded=0;orthogonalLoop=1;jettySize=auto;elbow=vertical;html=1;exitX=0;exitY=0.5;exitDx=0;exitDy=0;strokeColor=#FF0000;align=center;verticalAlign=middle;fontFamily=Helvetica;fontSize=12;fontColor=default;fontStyle=1;labelBackgroundColor=default;autosize=0;resizable=1;endArrow=classic;" edge="1" parent="1" source="1me-ID9ktgnD6JXUDjLw-21" target="1me-ID9ktgnD6JXUDjLw-21">
          <mxGeometry relative="1" as="geometry" />
        </mxCell>
        <mxCell id="1me-ID9ktgnD6JXUDjLw-25" value="" style="ellipse;html=1;shape=endState;fillColor=strokeColor;rounded=1;strokeColor=#000000;align=center;verticalAlign=middle;fontFamily=Helvetica;fontSize=12;fontColor=default;fontStyle=1;labelBackgroundColor=default;autosize=0;resizable=1;" vertex="1" parent="1">
          <mxGeometry x="1315" y="1138" width="30" height="30" as="geometry" />
        </mxCell>
      </root>
    </mxGraphModel>
  </diagram>
  <diagram id="FMwYC-hQDAoOw_K38Bn6" name="ドメインモデル、オブジェクト図">
    <mxGraphModel dx="6649" dy="3214" grid="1" gridSize="10" guides="1" tooltips="1" connect="1" arrows="1" fold="1" page="1" pageScale="1" pageWidth="1654" pageHeight="2336" math="0" shadow="0">
      <root>
        <mxCell id="0" />
        <mxCell id="1" parent="0" />
        <mxCell id="eYVz0RjQgJg_nyNnM9km-1" value="■ドメインモデル" style="text;html=1;align=center;verticalAlign=middle;whiteSpace=wrap;rounded=0;fontFamily=Helvetica;fontSize=16;fontColor=default;fontStyle=1;autosize=0;resizable=1;" parent="1" vertex="1">
          <mxGeometry x="-4881" y="60" width="180" height="30" as="geometry" />
        </mxCell>
        <mxCell id="eYVz0RjQgJg_nyNnM9km-2" value="■オブジェクト図" style="text;html=1;align=center;verticalAlign=middle;whiteSpace=wrap;rounded=0;fontFamily=Helvetica;fontSize=16;fontColor=default;fontStyle=1;autosize=0;resizable=1;" parent="1" vertex="1">
          <mxGeometry x="-4907.5" y="680" width="200" height="30" as="geometry" />
        </mxCell>
        <mxCell id="eYVz0RjQgJg_nyNnM9km-5" style="edgeStyle=elbowEdgeStyle;shape=connector;rounded=0;orthogonalLoop=1;jettySize=auto;elbow=horizontal;html=1;strokeColor=#FFB570;align=center;verticalAlign=middle;fontFamily=Helvetica;fontSize=12;fontColor=default;fontStyle=1;labelBackgroundColor=default;autosize=0;resizable=1;endArrow=none;endFill=0;strokeWidth=2;" parent="1" source="eYVz0RjQgJg_nyNnM9km-3" target="eYVz0RjQgJg_nyNnM9km-4" edge="1">
          <mxGeometry relative="1" as="geometry" />
        </mxCell>
        <mxCell id="eYVz0RjQgJg_nyNnM9km-6" value="1" style="edgeLabel;html=1;align=center;verticalAlign=middle;resizable=0;points=[];rounded=1;strokeColor=#d6b656;fontFamily=Helvetica;fontSize=16;fontColor=default;fontStyle=1;labelBackgroundColor=default;autosize=0;fillColor=#fff2cc;" parent="eYVz0RjQgJg_nyNnM9km-5" vertex="1" connectable="0">
          <mxGeometry x="-0.453" y="2" relative="1" as="geometry">
            <mxPoint as="offset" />
          </mxGeometry>
        </mxCell>
        <mxCell id="eYVz0RjQgJg_nyNnM9km-7" value="0..n" style="edgeLabel;html=1;align=center;verticalAlign=middle;resizable=0;points=[];rounded=1;strokeColor=#d6b656;fontFamily=Helvetica;fontSize=16;fontColor=default;fontStyle=1;labelBackgroundColor=default;autosize=0;fillColor=#fff2cc;" parent="eYVz0RjQgJg_nyNnM9km-5" vertex="1" connectable="0">
          <mxGeometry x="0.3932" y="2" relative="1" as="geometry">
            <mxPoint as="offset" />
          </mxGeometry>
        </mxCell>
        <mxCell id="eYVz0RjQgJg_nyNnM9km-10" style="edgeStyle=elbowEdgeStyle;shape=connector;rounded=0;orthogonalLoop=1;jettySize=auto;elbow=vertical;html=1;exitX=0.5;exitY=1;exitDx=0;exitDy=0;entryX=0;entryY=0.5;entryDx=0;entryDy=0;strokeColor=#FFB570;align=center;verticalAlign=middle;fontFamily=Helvetica;fontSize=12;fontColor=default;fontStyle=1;labelBackgroundColor=default;autosize=0;resizable=1;endArrow=classic;strokeWidth=2;" parent="1" source="eYVz0RjQgJg_nyNnM9km-3" target="eYVz0RjQgJg_nyNnM9km-8" edge="1">
          <mxGeometry relative="1" as="geometry">
            <Array as="points">
              <mxPoint x="-4650" y="420" />
            </Array>
          </mxGeometry>
        </mxCell>
        <mxCell id="eYVz0RjQgJg_nyNnM9km-3" value="&lt;u&gt;プロジェクト&lt;/u&gt;&lt;div&gt;&lt;br&gt;&lt;/div&gt;&lt;div style=&quot;text-align: left;&quot;&gt;・プロジェクト名&lt;/div&gt;&lt;div style=&quot;text-align: left;&quot;&gt;・開始日&lt;/div&gt;&lt;div style=&quot;text-align: left;&quot;&gt;・完了予定日&lt;/div&gt;" style="rounded=1;whiteSpace=wrap;html=1;align=center;verticalAlign=top;fontFamily=Helvetica;fontSize=16;fontStyle=1;labelBackgroundColor=none;autosize=0;resizable=1;fillColor=#fff2cc;strokeColor=#d6b656;" parent="1" vertex="1">
          <mxGeometry x="-4821" y="140" width="151" height="140" as="geometry" />
        </mxCell>
        <mxCell id="eYVz0RjQgJg_nyNnM9km-9" style="edgeStyle=elbowEdgeStyle;shape=connector;rounded=0;orthogonalLoop=1;jettySize=auto;elbow=vertical;html=1;entryX=0.5;entryY=0;entryDx=0;entryDy=0;strokeColor=#FFB570;align=center;verticalAlign=middle;fontFamily=Helvetica;fontSize=12;fontColor=default;fontStyle=1;labelBackgroundColor=default;autosize=0;resizable=1;endArrow=none;endFill=0;" parent="1" source="eYVz0RjQgJg_nyNnM9km-4" target="eYVz0RjQgJg_nyNnM9km-8" edge="1">
          <mxGeometry relative="1" as="geometry" />
        </mxCell>
        <mxCell id="eYVz0RjQgJg_nyNnM9km-23" style="edgeStyle=elbowEdgeStyle;shape=connector;rounded=0;orthogonalLoop=1;jettySize=auto;elbow=horizontal;html=1;strokeColor=#FFB570;strokeWidth=2;align=center;verticalAlign=middle;fontFamily=Helvetica;fontSize=12;fontColor=default;fontStyle=1;labelBackgroundColor=default;autosize=0;resizable=1;endArrow=none;endFill=0;" parent="1" source="eYVz0RjQgJg_nyNnM9km-4" target="eYVz0RjQgJg_nyNnM9km-20" edge="1">
          <mxGeometry relative="1" as="geometry" />
        </mxCell>
        <mxCell id="eYVz0RjQgJg_nyNnM9km-4" value="&lt;u&gt;タスク&lt;/u&gt;&lt;br&gt;&lt;div&gt;&lt;br&gt;&lt;/div&gt;&lt;div style=&quot;text-align: left;&quot;&gt;・タスク名&lt;/div&gt;&lt;div style=&quot;text-align: left;&quot;&gt;・詳細&lt;/div&gt;&lt;div style=&quot;text-align: left;&quot;&gt;・ステータス&lt;/div&gt;&lt;div style=&quot;text-align: left;&quot;&gt;・設計Doc.URL&lt;/div&gt;" style="rounded=1;whiteSpace=wrap;html=1;align=center;verticalAlign=top;fontFamily=Helvetica;fontSize=16;fontStyle=1;labelBackgroundColor=none;autosize=0;resizable=1;fillColor=#fff2cc;strokeColor=#d6b656;" parent="1" vertex="1">
          <mxGeometry x="-4540" y="140" width="151" height="140" as="geometry" />
        </mxCell>
        <mxCell id="eYVz0RjQgJg_nyNnM9km-8" value="&lt;u&gt;マイルストーン&lt;/u&gt;&lt;br&gt;&lt;div&gt;&lt;br&gt;&lt;/div&gt;&lt;div style=&quot;text-align: left;&quot;&gt;・マイルストーン名&lt;/div&gt;&lt;div style=&quot;text-align: left;&quot;&gt;・開始日&lt;/div&gt;&lt;div style=&quot;text-align: left;&quot;&gt;・完了予定日&lt;/div&gt;" style="rounded=1;whiteSpace=wrap;html=1;align=center;verticalAlign=top;fontFamily=Helvetica;fontSize=16;fontStyle=1;labelBackgroundColor=none;autosize=0;resizable=1;fillColor=#fff2cc;strokeColor=#d6b656;" parent="1" vertex="1">
          <mxGeometry x="-4540" y="350" width="151" height="140" as="geometry" />
        </mxCell>
        <mxCell id="eYVz0RjQgJg_nyNnM9km-12" value="&lt;span style=&quot;font-size: 16px;&quot;&gt;1..n&lt;/span&gt;" style="text;html=1;align=center;verticalAlign=middle;resizable=1;points=[];autosize=0;strokeColor=none;fillColor=none;fontFamily=Helvetica;fontSize=12;fontColor=default;fontStyle=1;labelBackgroundColor=default;" parent="1" vertex="1">
          <mxGeometry x="-4590" y="370" width="40" height="26" as="geometry" />
        </mxCell>
        <mxCell id="eYVz0RjQgJg_nyNnM9km-14" value="&lt;font style=&quot;font-size: 16px;&quot;&gt;1&lt;/font&gt;" style="text;html=1;align=center;verticalAlign=middle;resizable=1;points=[];autosize=0;strokeColor=none;fillColor=none;fontFamily=Helvetica;fontSize=12;fontColor=default;fontStyle=1;labelBackgroundColor=default;" parent="1" vertex="1">
          <mxGeometry x="-4741" y="280" width="40" height="26" as="geometry" />
        </mxCell>
        <mxCell id="eYVz0RjQgJg_nyNnM9km-15" value="0..n" style="text;html=1;align=center;verticalAlign=middle;resizable=1;points=[];autosize=0;strokeColor=none;fillColor=none;fontFamily=Helvetica;fontSize=16;fontColor=default;fontStyle=1;labelBackgroundColor=default;" parent="1" vertex="1">
          <mxGeometry x="-4470" y="280" width="40" height="26" as="geometry" />
        </mxCell>
        <mxCell id="eYVz0RjQgJg_nyNnM9km-16" value="&lt;font style=&quot;font-size: 16px;&quot;&gt;1&lt;/font&gt;" style="text;html=1;align=center;verticalAlign=middle;resizable=1;points=[];autosize=0;strokeColor=none;fillColor=none;fontFamily=Helvetica;fontSize=12;fontColor=default;fontStyle=1;labelBackgroundColor=default;" parent="1" vertex="1">
          <mxGeometry x="-4470" y="320" width="40" height="26" as="geometry" />
        </mxCell>
        <mxCell id="eYVz0RjQgJg_nyNnM9km-18" value="&lt;font style=&quot;font-size: 14px;&quot;&gt;マイルストーンに紐づいてない&lt;/font&gt;&lt;div style=&quot;font-size: 14px;&quot;&gt;&lt;font style=&quot;font-size: 14px;&quot;&gt;タスクは「作業中」にできない&lt;/font&gt;&lt;/div&gt;&lt;div style=&quot;font-size: 14px;&quot;&gt;&lt;br&gt;&lt;/div&gt;" style="rounded=0;whiteSpace=wrap;html=1;align=center;verticalAlign=top;fontFamily=Helvetica;fontSize=12;fontStyle=1;labelBackgroundColor=none;autosize=0;resizable=1;fillColor=#f8cecc;strokeColor=#b85450;" parent="1" vertex="1">
          <mxGeometry x="-4420" y="70" width="200" height="50" as="geometry" />
        </mxCell>
        <mxCell id="eYVz0RjQgJg_nyNnM9km-19" style="shape=connector;rounded=0;orthogonalLoop=1;jettySize=auto;elbow=vertical;html=1;entryX=0.992;entryY=0.438;entryDx=0;entryDy=0;entryPerimeter=0;strokeColor=#FFB570;align=center;verticalAlign=middle;fontFamily=Helvetica;fontSize=12;fontColor=default;fontStyle=1;labelBackgroundColor=default;autosize=0;resizable=1;endArrow=none;endFill=0;strokeWidth=2;" parent="1" source="eYVz0RjQgJg_nyNnM9km-18" target="eYVz0RjQgJg_nyNnM9km-4" edge="1">
          <mxGeometry relative="1" as="geometry" />
        </mxCell>
        <mxCell id="eYVz0RjQgJg_nyNnM9km-20" value="&lt;u&gt;社員&lt;/u&gt;&lt;div&gt;&lt;u&gt;&lt;br&gt;&lt;/u&gt;&lt;div style=&quot;text-align: left;&quot;&gt;・氏名&lt;/div&gt;&lt;div style=&quot;text-align: left;&quot;&gt;・Email&lt;/div&gt;&lt;div style=&quot;text-align: left;&quot;&gt;・PW&lt;/div&gt;&lt;div style=&quot;text-align: left;&quot;&gt;・役割&lt;/div&gt;&lt;/div&gt;" style="rounded=1;whiteSpace=wrap;html=1;align=center;verticalAlign=top;fontFamily=Helvetica;fontSize=16;fontStyle=1;labelBackgroundColor=none;autosize=0;resizable=1;fillColor=#fff2cc;strokeColor=#d6b656;" parent="1" vertex="1">
          <mxGeometry x="-4220" y="140" width="96" height="140" as="geometry" />
        </mxCell>
        <mxCell id="eYVz0RjQgJg_nyNnM9km-22" style="shape=connector;rounded=0;orthogonalLoop=1;jettySize=auto;elbow=horizontal;html=1;entryX=1;entryY=0.5;entryDx=0;entryDy=0;strokeColor=#FFB570;strokeWidth=2;align=center;verticalAlign=middle;fontFamily=Helvetica;fontSize=12;fontColor=default;fontStyle=1;labelBackgroundColor=default;autosize=0;resizable=1;endArrow=none;endFill=0;exitX=0.5;exitY=1;exitDx=0;exitDy=0;" parent="1" source="eYVz0RjQgJg_nyNnM9km-21" target="eYVz0RjQgJg_nyNnM9km-20" edge="1">
          <mxGeometry relative="1" as="geometry" />
        </mxCell>
        <mxCell id="eYVz0RjQgJg_nyNnM9km-21" value="&lt;span style=&quot;font-size: 14px;&quot;&gt;・役割はSE/PG&lt;/span&gt;&lt;div&gt;&lt;span style=&quot;font-size: 14px;&quot;&gt;・ログインはEmail, Pass&lt;br&gt;&lt;/span&gt;&lt;div style=&quot;font-size: 14px;&quot;&gt;・PWは英数字8～16文字&lt;/div&gt;&lt;/div&gt;" style="rounded=0;whiteSpace=wrap;html=1;align=left;verticalAlign=top;fontFamily=Helvetica;fontSize=12;fontStyle=1;labelBackgroundColor=none;autosize=0;resizable=1;fillColor=#f8cecc;strokeColor=#b85450;" parent="1" vertex="1">
          <mxGeometry x="-4135" y="60" width="175" height="60" as="geometry" />
        </mxCell>
        <mxCell id="eYVz0RjQgJg_nyNnM9km-24" value="0..n" style="text;html=1;align=center;verticalAlign=middle;resizable=1;points=[];autosize=0;strokeColor=none;fillColor=none;fontFamily=Helvetica;fontSize=16;fontColor=default;fontStyle=1;labelBackgroundColor=default;" parent="1" vertex="1">
          <mxGeometry x="-4390" y="180" width="40" height="26" as="geometry" />
        </mxCell>
        <mxCell id="eYVz0RjQgJg_nyNnM9km-25" value="1" style="text;html=1;align=center;verticalAlign=middle;resizable=1;points=[];autosize=0;strokeColor=none;fillColor=none;fontFamily=Helvetica;fontSize=16;fontColor=default;fontStyle=1;labelBackgroundColor=default;" parent="1" vertex="1">
          <mxGeometry x="-4270" y="180" width="40" height="26" as="geometry" />
        </mxCell>
        <mxCell id="eYVz0RjQgJg_nyNnM9km-26" style="edgeStyle=elbowEdgeStyle;shape=connector;rounded=0;orthogonalLoop=1;jettySize=auto;elbow=horizontal;html=1;exitX=0.25;exitY=1;exitDx=0;exitDy=0;entryX=0.5;entryY=1;entryDx=0;entryDy=0;strokeColor=#FFB570;strokeWidth=2;align=center;verticalAlign=middle;fontFamily=Helvetica;fontSize=12;fontColor=default;fontStyle=1;labelBackgroundColor=default;autosize=0;resizable=1;endArrow=none;endFill=0;" parent="1" source="eYVz0RjQgJg_nyNnM9km-3" target="eYVz0RjQgJg_nyNnM9km-20" edge="1">
          <mxGeometry relative="1" as="geometry">
            <Array as="points">
              <mxPoint x="-4500" y="510" />
            </Array>
          </mxGeometry>
        </mxCell>
        <mxCell id="eYVz0RjQgJg_nyNnM9km-27" value="&lt;font style=&quot;font-size: 16px;&quot;&gt;0..n&lt;/font&gt;" style="edgeLabel;html=1;align=center;verticalAlign=middle;resizable=0;points=[];fontFamily=Helvetica;fontSize=12;fontColor=default;fontStyle=1;labelBackgroundColor=default;autosize=0;fillColor=none;gradientColor=none;" parent="eYVz0RjQgJg_nyNnM9km-26" vertex="1" connectable="0">
          <mxGeometry x="0.9547" y="-4" relative="1" as="geometry">
            <mxPoint as="offset" />
          </mxGeometry>
        </mxCell>
        <mxCell id="eYVz0RjQgJg_nyNnM9km-28" value="&lt;font style=&quot;font-size: 16px;&quot;&gt;0..3&lt;/font&gt;" style="edgeLabel;html=1;align=center;verticalAlign=middle;resizable=0;points=[];fontFamily=Helvetica;fontSize=12;fontColor=default;fontStyle=1;labelBackgroundColor=default;autosize=0;fillColor=none;gradientColor=none;" parent="eYVz0RjQgJg_nyNnM9km-26" vertex="1" connectable="0">
          <mxGeometry x="-0.9448" y="2" relative="1" as="geometry">
            <mxPoint as="offset" />
          </mxGeometry>
        </mxCell>
        <mxCell id="eYVz0RjQgJg_nyNnM9km-29" value="新人は1個だけ&lt;div&gt;=&amp;gt;新人って何？（定義が曖昧なので、初期リリースでは運用カバー）&lt;/div&gt;" style="rounded=0;whiteSpace=wrap;html=1;align=center;verticalAlign=top;fontFamily=Helvetica;fontSize=12;fontStyle=1;labelBackgroundColor=none;autosize=0;resizable=1;fillColor=#f8cecc;strokeColor=#b85450;" parent="1" vertex="1">
          <mxGeometry x="-4962" y="350" width="200" height="50" as="geometry" />
        </mxCell>
        <mxCell id="BivwYwhPEwWz-UGRqVi6-7" style="edgeStyle=elbowEdgeStyle;shape=connector;rounded=0;orthogonalLoop=1;jettySize=auto;elbow=horizontal;html=1;strokeColor=#FFB570;strokeWidth=2;align=center;verticalAlign=middle;fontFamily=Helvetica;fontSize=12;fontColor=default;fontStyle=1;labelBackgroundColor=default;autosize=0;resizable=1;endArrow=none;endFill=0;" parent="1" source="jawZkJxd_1Uwzhc9CrYX-1" target="BivwYwhPEwWz-UGRqVi6-2" edge="1">
          <mxGeometry relative="1" as="geometry" />
        </mxCell>
        <mxCell id="BivwYwhPEwWz-UGRqVi6-17" style="edgeStyle=elbowEdgeStyle;shape=connector;rounded=0;orthogonalLoop=1;jettySize=auto;elbow=vertical;html=1;exitX=1;exitY=0.75;exitDx=0;exitDy=0;strokeColor=#FFB570;strokeWidth=2;align=center;verticalAlign=middle;fontFamily=Helvetica;fontSize=12;fontColor=default;fontStyle=1;labelBackgroundColor=default;autosize=0;resizable=1;endArrow=none;endFill=0;" parent="1" edge="1">
          <mxGeometry relative="1" as="geometry">
            <mxPoint x="-4390" y="3.75" as="sourcePoint" />
            <mxPoint x="-4200" y="140" as="targetPoint" />
            <Array as="points">
              <mxPoint x="-4280" y="60" />
            </Array>
          </mxGeometry>
        </mxCell>
        <mxCell id="BivwYwhPEwWz-UGRqVi6-19" value="&lt;font style=&quot;font-size: 16px;&quot;&gt;1&lt;/font&gt;" style="edgeLabel;html=1;align=center;verticalAlign=middle;resizable=0;points=[];fontFamily=Helvetica;fontSize=12;fontColor=default;fontStyle=1;labelBackgroundColor=default;autosize=0;fillColor=none;gradientColor=none;" parent="BivwYwhPEwWz-UGRqVi6-17" vertex="1" connectable="0">
          <mxGeometry x="0.8766" y="-1" relative="1" as="geometry">
            <mxPoint as="offset" />
          </mxGeometry>
        </mxCell>
        <mxCell id="rKibX1r8ceTcwP2PQAfH-1" style="edgeStyle=orthogonalEdgeStyle;rounded=0;orthogonalLoop=1;jettySize=auto;html=1;entryX=0.5;entryY=0;entryDx=0;entryDy=0;strokeColor=#FFB570;strokeWidth=2;align=center;verticalAlign=middle;fontFamily=Helvetica;fontSize=12;fontColor=default;fontStyle=1;labelBackgroundColor=default;autosize=0;resizable=1;elbow=horizontal;endArrow=none;endFill=0;" edge="1" parent="1" source="jawZkJxd_1Uwzhc9CrYX-1" target="eYVz0RjQgJg_nyNnM9km-4">
          <mxGeometry relative="1" as="geometry" />
        </mxCell>
        <mxCell id="rKibX1r8ceTcwP2PQAfH-2" value="0..5" style="edgeLabel;html=1;align=center;verticalAlign=middle;resizable=0;points=[];fontSize=16;fontStyle=1" vertex="1" connectable="0" parent="rKibX1r8ceTcwP2PQAfH-1">
          <mxGeometry x="-0.6545" relative="1" as="geometry">
            <mxPoint as="offset" />
          </mxGeometry>
        </mxCell>
        <mxCell id="rKibX1r8ceTcwP2PQAfH-3" value="&lt;b&gt;&lt;font style=&quot;font-size: 16px;&quot;&gt;1&lt;/font&gt;&lt;/b&gt;" style="edgeLabel;html=1;align=center;verticalAlign=middle;resizable=0;points=[];" vertex="1" connectable="0" parent="rKibX1r8ceTcwP2PQAfH-1">
          <mxGeometry x="0.6655" y="-3" relative="1" as="geometry">
            <mxPoint as="offset" />
          </mxGeometry>
        </mxCell>
        <mxCell id="jawZkJxd_1Uwzhc9CrYX-1" value="&lt;u&gt;スレッド&lt;/u&gt;&lt;br&gt;&lt;div&gt;&lt;br&gt;&lt;/div&gt;&lt;div style=&quot;text-align: left;&quot;&gt;・作成日時&lt;/div&gt;&lt;div style=&quot;text-align: left;&quot;&gt;・作成者&lt;/div&gt;&lt;div style=&quot;text-align: left;&quot;&gt;・宛先&lt;/div&gt;&lt;div style=&quot;text-align: left;&quot;&gt;・タイトル&lt;span style=&quot;background-color: initial;&quot;&gt;（～50文字）&lt;/span&gt;&lt;/div&gt;&lt;div style=&quot;text-align: left;&quot;&gt;・本文（～250文字）&lt;/div&gt;&lt;div style=&quot;text-align: left;&quot;&gt;・解決フラグ&lt;/div&gt;" style="rounded=1;whiteSpace=wrap;html=1;align=center;verticalAlign=top;fontFamily=Helvetica;fontSize=16;fontStyle=1;labelBackgroundColor=none;autosize=0;resizable=1;fillColor=#fff2cc;strokeColor=#d6b656;" parent="1" vertex="1">
          <mxGeometry x="-4580" y="-130" width="191" height="170" as="geometry" />
        </mxCell>
        <mxCell id="jawZkJxd_1Uwzhc9CrYX-2" value="&lt;span style=&quot;font-size: 14px;&quot;&gt;・宛先は未入力でもOK&lt;/span&gt;&lt;div&gt;&lt;div style=&quot;&quot;&gt;&lt;span style=&quot;font-size: 14px; background-color: initial;&quot;&gt;・スレッドが多すぎる場合、タスクが悪いと判断&lt;/span&gt;&lt;/div&gt;&lt;div style=&quot;font-size: 14px;&quot;&gt;&lt;br&gt;&lt;/div&gt;&lt;/div&gt;" style="rounded=0;whiteSpace=wrap;html=1;align=left;verticalAlign=top;fontFamily=Helvetica;fontSize=12;fontStyle=1;labelBackgroundColor=none;autosize=0;resizable=1;fillColor=#f8cecc;strokeColor=#b85450;" parent="1" vertex="1">
          <mxGeometry x="-4460" y="-210" width="210" height="60" as="geometry" />
        </mxCell>
        <mxCell id="jawZkJxd_1Uwzhc9CrYX-3" style="shape=connector;rounded=0;orthogonalLoop=1;jettySize=auto;elbow=vertical;html=1;entryX=1;entryY=0.25;entryDx=0;entryDy=0;strokeColor=#FFB570;align=center;verticalAlign=middle;fontFamily=Helvetica;fontSize=12;fontColor=default;fontStyle=1;labelBackgroundColor=default;autosize=0;resizable=1;endArrow=none;endFill=0;strokeWidth=2;" parent="1" source="jawZkJxd_1Uwzhc9CrYX-2" target="jawZkJxd_1Uwzhc9CrYX-1" edge="1">
          <mxGeometry relative="1" as="geometry">
            <mxPoint x="-4350" y="-59" as="targetPoint" />
          </mxGeometry>
        </mxCell>
        <mxCell id="BivwYwhPEwWz-UGRqVi6-9" value="" style="edgeStyle=elbowEdgeStyle;shape=connector;rounded=0;orthogonalLoop=1;jettySize=auto;elbow=horizontal;html=1;strokeColor=#FFB570;strokeWidth=2;align=center;verticalAlign=middle;fontFamily=Helvetica;fontSize=12;fontColor=default;fontStyle=1;labelBackgroundColor=default;autosize=0;resizable=1;endArrow=none;endFill=0;" parent="1" source="BivwYwhPEwWz-UGRqVi6-2" target="jawZkJxd_1Uwzhc9CrYX-1" edge="1">
          <mxGeometry relative="1" as="geometry" />
        </mxCell>
        <mxCell id="BivwYwhPEwWz-UGRqVi6-12" value="&lt;font style=&quot;font-size: 16px;&quot;&gt;1&lt;/font&gt;" style="edgeLabel;html=1;align=center;verticalAlign=middle;resizable=0;points=[];fontFamily=Helvetica;fontSize=12;fontColor=default;fontStyle=1;labelBackgroundColor=default;autosize=0;fillColor=none;gradientColor=none;" parent="BivwYwhPEwWz-UGRqVi6-9" vertex="1" connectable="0">
          <mxGeometry x="0.538" y="-3" relative="1" as="geometry">
            <mxPoint as="offset" />
          </mxGeometry>
        </mxCell>
        <mxCell id="BivwYwhPEwWz-UGRqVi6-13" style="edgeStyle=elbowEdgeStyle;shape=connector;rounded=0;orthogonalLoop=1;jettySize=auto;elbow=horizontal;html=1;entryX=0.5;entryY=0;entryDx=0;entryDy=0;strokeColor=#FFB570;strokeWidth=2;align=center;verticalAlign=middle;fontFamily=Helvetica;fontSize=12;fontColor=default;fontStyle=1;labelBackgroundColor=default;autosize=0;resizable=1;endArrow=none;endFill=0;" parent="1" source="BivwYwhPEwWz-UGRqVi6-2" target="eYVz0RjQgJg_nyNnM9km-20" edge="1">
          <mxGeometry relative="1" as="geometry" />
        </mxCell>
        <mxCell id="BivwYwhPEwWz-UGRqVi6-14" value="&lt;span style=&quot;font-size: 16px;&quot;&gt;0..n&lt;/span&gt;" style="edgeLabel;html=1;align=center;verticalAlign=middle;resizable=0;points=[];fontFamily=Helvetica;fontSize=12;fontColor=default;fontStyle=1;labelBackgroundColor=default;autosize=0;fillColor=none;gradientColor=none;" parent="BivwYwhPEwWz-UGRqVi6-13" vertex="1" connectable="0">
          <mxGeometry x="-0.6272" y="-3" relative="1" as="geometry">
            <mxPoint as="offset" />
          </mxGeometry>
        </mxCell>
        <mxCell id="BivwYwhPEwWz-UGRqVi6-16" value="&lt;span style=&quot;font-size: 16px;&quot;&gt;1&lt;/span&gt;" style="edgeLabel;html=1;align=center;verticalAlign=middle;resizable=0;points=[];fontFamily=Helvetica;fontSize=12;fontColor=default;fontStyle=1;labelBackgroundColor=default;autosize=0;fillColor=none;gradientColor=none;" parent="BivwYwhPEwWz-UGRqVi6-13" vertex="1" connectable="0">
          <mxGeometry x="0.6055" y="3" relative="1" as="geometry">
            <mxPoint x="-1" as="offset" />
          </mxGeometry>
        </mxCell>
        <mxCell id="BivwYwhPEwWz-UGRqVi6-2" value="&lt;u&gt;返信&lt;/u&gt;&lt;br&gt;&lt;div&gt;&lt;br&gt;&lt;/div&gt;&lt;div style=&quot;text-align: left;&quot;&gt;・返信日時&lt;/div&gt;&lt;div style=&quot;text-align: left;&quot;&gt;・投稿者&lt;/div&gt;&lt;div style=&quot;text-align: left;&quot;&gt;・宛先&lt;/div&gt;&lt;div style=&quot;text-align: left;&quot;&gt;・本文&lt;span style=&quot;background-color: initial;&quot;&gt;（～250文字）&lt;/span&gt;&lt;/div&gt;" style="rounded=1;whiteSpace=wrap;html=1;align=center;verticalAlign=top;fontFamily=Helvetica;fontSize=16;fontStyle=1;labelBackgroundColor=none;autosize=0;resizable=1;fillColor=#fff2cc;strokeColor=#d6b656;arcSize=27;" parent="1" vertex="1">
          <mxGeometry x="-4232" y="-130" width="120" height="170" as="geometry" />
        </mxCell>
        <mxCell id="BivwYwhPEwWz-UGRqVi6-4" style="shape=connector;rounded=0;orthogonalLoop=1;jettySize=auto;elbow=horizontal;html=1;strokeColor=#FFB570;strokeWidth=2;align=center;verticalAlign=middle;fontFamily=Helvetica;fontSize=12;fontColor=default;fontStyle=1;labelBackgroundColor=default;autosize=0;resizable=1;endArrow=none;endFill=0;entryX=1;entryY=0.25;entryDx=0;entryDy=0;exitX=0.5;exitY=1;exitDx=0;exitDy=0;" parent="1" source="BivwYwhPEwWz-UGRqVi6-3" target="BivwYwhPEwWz-UGRqVi6-2" edge="1">
          <mxGeometry relative="1" as="geometry">
            <mxPoint x="-4105" y="-80" as="targetPoint" />
          </mxGeometry>
        </mxCell>
        <mxCell id="BivwYwhPEwWz-UGRqVi6-3" value="&lt;span style=&quot;font-size: 14px;&quot;&gt;・宛先は未入力でもOK&lt;/span&gt;&lt;div&gt;&lt;div style=&quot;font-size: 14px;&quot;&gt;&lt;br&gt;&lt;/div&gt;&lt;/div&gt;" style="rounded=0;whiteSpace=wrap;html=1;align=left;verticalAlign=top;fontFamily=Helvetica;fontSize=12;fontStyle=1;labelBackgroundColor=none;autosize=0;resizable=1;fillColor=#f8cecc;strokeColor=#b85450;" parent="1" vertex="1">
          <mxGeometry x="-4150" y="-200" width="170" height="40" as="geometry" />
        </mxCell>
        <mxCell id="BivwYwhPEwWz-UGRqVi6-5" value="&lt;span style=&quot;font-size: 14px;&quot;&gt;「ステータス」は&lt;/span&gt;&lt;div&gt;&lt;span style=&quot;font-size: 14px;&quot;&gt;状態遷移図に記載&lt;br&gt;&lt;/span&gt;&lt;div style=&quot;font-size: 14px;&quot;&gt;&lt;br&gt;&lt;/div&gt;&lt;/div&gt;" style="rounded=0;whiteSpace=wrap;html=1;align=center;verticalAlign=top;fontFamily=Helvetica;fontSize=12;fontStyle=1;labelBackgroundColor=none;autosize=0;resizable=1;fillColor=#f8cecc;strokeColor=#b85450;" parent="1" vertex="1">
          <mxGeometry x="-4660" y="70" width="150" height="50" as="geometry" />
        </mxCell>
        <mxCell id="BivwYwhPEwWz-UGRqVi6-6" style="shape=connector;rounded=0;orthogonalLoop=1;jettySize=auto;elbow=horizontal;html=1;entryX=-0.008;entryY=0.201;entryDx=0;entryDy=0;entryPerimeter=0;strokeColor=#FFB570;strokeWidth=2;align=center;verticalAlign=middle;fontFamily=Helvetica;fontSize=12;fontColor=default;fontStyle=1;labelBackgroundColor=default;autosize=0;resizable=1;endArrow=none;endFill=0;exitX=0.5;exitY=1;exitDx=0;exitDy=0;" parent="1" source="BivwYwhPEwWz-UGRqVi6-5" target="eYVz0RjQgJg_nyNnM9km-4" edge="1">
          <mxGeometry relative="1" as="geometry" />
        </mxCell>
        <mxCell id="BivwYwhPEwWz-UGRqVi6-10" value="&lt;font style=&quot;font-size: 16px;&quot;&gt;0..n&lt;/font&gt;" style="text;html=1;align=center;verticalAlign=middle;resizable=1;points=[];autosize=0;strokeColor=none;fillColor=none;fontFamily=Helvetica;fontSize=12;fontColor=default;fontStyle=1;labelBackgroundColor=default;" parent="1" vertex="1">
          <mxGeometry x="-4300" y="-58" width="40" height="26" as="geometry" />
        </mxCell>
        <mxCell id="BivwYwhPEwWz-UGRqVi6-18" value="&lt;font style=&quot;font-size: 16px;&quot;&gt;0..n&lt;/font&gt;" style="text;html=1;align=center;verticalAlign=middle;resizable=1;points=[];autosize=0;strokeColor=none;fillColor=none;fontFamily=Helvetica;fontSize=12;fontColor=default;fontStyle=1;labelBackgroundColor=default;" parent="1" vertex="1">
          <mxGeometry x="-4380" y="30" width="40" height="26" as="geometry" />
        </mxCell>
        <mxCell id="t6yfkODM-43j3eEAp-6J-6" style="edgeStyle=elbowEdgeStyle;shape=connector;rounded=0;orthogonalLoop=1;jettySize=auto;elbow=vertical;html=1;exitX=0.5;exitY=1;exitDx=0;exitDy=0;entryX=0.5;entryY=0;entryDx=0;entryDy=0;strokeColor=#FFB570;strokeWidth=2;align=center;verticalAlign=middle;fontFamily=Helvetica;fontSize=12;fontColor=default;fontStyle=1;labelBackgroundColor=default;autosize=0;resizable=1;endArrow=none;endFill=0;" parent="1" source="t6yfkODM-43j3eEAp-6J-1" target="t6yfkODM-43j3eEAp-6J-2" edge="1">
          <mxGeometry relative="1" as="geometry" />
        </mxCell>
        <mxCell id="t6yfkODM-43j3eEAp-6J-7" style="edgeStyle=elbowEdgeStyle;shape=connector;rounded=0;orthogonalLoop=1;jettySize=auto;elbow=vertical;html=1;exitX=0.5;exitY=1;exitDx=0;exitDy=0;entryX=0.5;entryY=0;entryDx=0;entryDy=0;strokeColor=#FFB570;strokeWidth=2;align=center;verticalAlign=middle;fontFamily=Helvetica;fontSize=12;fontColor=default;fontStyle=1;labelBackgroundColor=default;autosize=0;resizable=1;endArrow=none;endFill=0;" parent="1" source="t6yfkODM-43j3eEAp-6J-1" target="t6yfkODM-43j3eEAp-6J-3" edge="1">
          <mxGeometry relative="1" as="geometry" />
        </mxCell>
        <mxCell id="t6yfkODM-43j3eEAp-6J-20" style="edgeStyle=orthogonalEdgeStyle;shape=connector;rounded=0;orthogonalLoop=1;jettySize=auto;html=1;entryX=0.5;entryY=0;entryDx=0;entryDy=0;strokeColor=#FFB570;strokeWidth=2;align=center;verticalAlign=middle;fontFamily=Helvetica;fontSize=12;fontColor=default;fontStyle=1;labelBackgroundColor=default;autosize=0;resizable=1;endArrow=none;endFill=0;" parent="1" source="t6yfkODM-43j3eEAp-6J-1" target="t6yfkODM-43j3eEAp-6J-9" edge="1">
          <mxGeometry relative="1" as="geometry">
            <Array as="points">
              <mxPoint x="-4735" y="640" />
              <mxPoint x="-4220" y="640" />
            </Array>
          </mxGeometry>
        </mxCell>
        <mxCell id="t6yfkODM-43j3eEAp-6J-1" value="&lt;u&gt;プロジェクト&lt;/u&gt;&lt;div&gt;&lt;br&gt;&lt;/div&gt;&lt;div style=&quot;text-align: left;&quot;&gt;・A社●●案件&lt;/div&gt;&lt;div style=&quot;text-align: left;&quot;&gt;・2022/09/01&lt;/div&gt;&lt;div style=&quot;text-align: left;&quot;&gt;・2023/08/31&lt;/div&gt;" style="rounded=1;whiteSpace=wrap;html=1;align=center;verticalAlign=top;fontFamily=Helvetica;fontSize=16;fontStyle=1;labelBackgroundColor=none;autosize=0;resizable=1;fillColor=#fff2cc;strokeColor=#d6b656;" parent="1" vertex="1">
          <mxGeometry x="-4811" y="760" width="151" height="140" as="geometry" />
        </mxCell>
        <mxCell id="t6yfkODM-43j3eEAp-6J-2" value="&lt;u&gt;マイルストーン&lt;/u&gt;&lt;br&gt;&lt;div&gt;&lt;br&gt;&lt;/div&gt;&lt;div style=&quot;text-align: left;&quot;&gt;・Phase2&lt;/div&gt;&lt;div style=&quot;text-align: left;&quot;&gt;・2022/11/01&lt;/div&gt;&lt;div style=&quot;text-align: left;&quot;&gt;・2023/01/31&lt;/div&gt;" style="rounded=1;whiteSpace=wrap;html=1;align=center;verticalAlign=top;fontFamily=Helvetica;fontSize=16;fontStyle=1;labelBackgroundColor=none;autosize=0;resizable=1;fillColor=#fff2cc;strokeColor=#d6b656;" parent="1" vertex="1">
          <mxGeometry x="-4907.5" y="950" width="151" height="120" as="geometry" />
        </mxCell>
        <mxCell id="t6yfkODM-43j3eEAp-6J-16" style="edgeStyle=orthogonalEdgeStyle;shape=connector;rounded=0;orthogonalLoop=1;jettySize=auto;html=1;strokeColor=#FFB570;strokeWidth=2;align=center;verticalAlign=middle;fontFamily=Helvetica;fontSize=12;fontColor=default;fontStyle=1;labelBackgroundColor=default;autosize=0;resizable=1;endArrow=none;endFill=0;" parent="1" source="t6yfkODM-43j3eEAp-6J-3" target="t6yfkODM-43j3eEAp-6J-8" edge="1">
          <mxGeometry relative="1" as="geometry">
            <Array as="points">
              <mxPoint x="-4530" y="1010" />
              <mxPoint x="-4530" y="740" />
            </Array>
          </mxGeometry>
        </mxCell>
        <mxCell id="t6yfkODM-43j3eEAp-6J-3" value="&lt;u&gt;マイルストーン&lt;/u&gt;&lt;br&gt;&lt;div&gt;&lt;br&gt;&lt;/div&gt;&lt;div style=&quot;text-align: left;&quot;&gt;・Phase1&lt;/div&gt;&lt;div style=&quot;text-align: left;&quot;&gt;・2022/09/01&lt;/div&gt;&lt;div style=&quot;text-align: left;&quot;&gt;&lt;span style=&quot;background-color: initial;&quot;&gt;・2022/11/30&lt;/span&gt;&lt;/div&gt;" style="rounded=1;whiteSpace=wrap;html=1;align=center;verticalAlign=top;fontFamily=Helvetica;fontSize=16;fontStyle=1;labelBackgroundColor=none;autosize=0;resizable=1;fillColor=#fff2cc;strokeColor=#d6b656;" parent="1" vertex="1">
          <mxGeometry x="-4714.5" y="950" width="151" height="120" as="geometry" />
        </mxCell>
        <mxCell id="t6yfkODM-43j3eEAp-6J-8" value="&lt;u&gt;タスク&lt;/u&gt;&lt;br&gt;&lt;div&gt;&lt;br&gt;&lt;/div&gt;&lt;div style=&quot;text-align: left;&quot;&gt;・●●開発&lt;/div&gt;&lt;div style=&quot;text-align: left;&quot;&gt;・～～～～&lt;/div&gt;&lt;div style=&quot;text-align: left;&quot;&gt;・作業中&lt;/div&gt;&lt;div style=&quot;text-align: left;&quot;&gt;・https://~~&lt;/div&gt;" style="rounded=1;whiteSpace=wrap;html=1;align=center;verticalAlign=top;fontFamily=Helvetica;fontSize=16;fontStyle=1;labelBackgroundColor=none;autosize=0;resizable=1;fillColor=#fff2cc;strokeColor=#d6b656;" parent="1" vertex="1">
          <mxGeometry x="-4510" y="670" width="151" height="140" as="geometry" />
        </mxCell>
        <mxCell id="t6yfkODM-43j3eEAp-6J-18" style="edgeStyle=orthogonalEdgeStyle;shape=connector;rounded=0;orthogonalLoop=1;jettySize=auto;html=1;entryX=1;entryY=0.5;entryDx=0;entryDy=0;strokeColor=#FFB570;strokeWidth=2;align=center;verticalAlign=middle;fontFamily=Helvetica;fontSize=12;fontColor=default;fontStyle=1;labelBackgroundColor=default;autosize=0;resizable=1;endArrow=none;endFill=0;" parent="1" source="t6yfkODM-43j3eEAp-6J-9" target="t6yfkODM-43j3eEAp-6J-8" edge="1">
          <mxGeometry relative="1" as="geometry" />
        </mxCell>
        <mxCell id="t6yfkODM-43j3eEAp-6J-19" style="edgeStyle=orthogonalEdgeStyle;shape=connector;rounded=0;orthogonalLoop=1;jettySize=auto;html=1;entryX=1;entryY=0.5;entryDx=0;entryDy=0;strokeColor=#FFB570;strokeWidth=2;align=center;verticalAlign=middle;fontFamily=Helvetica;fontSize=12;fontColor=default;fontStyle=1;labelBackgroundColor=default;autosize=0;resizable=1;endArrow=none;endFill=0;" parent="1" source="t6yfkODM-43j3eEAp-6J-9" target="t6yfkODM-43j3eEAp-6J-10" edge="1">
          <mxGeometry relative="1" as="geometry" />
        </mxCell>
        <mxCell id="t6yfkODM-43j3eEAp-6J-9" value="&lt;u&gt;社員&lt;/u&gt;&lt;div&gt;&lt;u&gt;&lt;br&gt;&lt;/u&gt;&lt;div style=&quot;text-align: left;&quot;&gt;・ 田中　太郎&lt;/div&gt;&lt;div style=&quot;text-align: left;&quot;&gt;・tanaka@~~&lt;/div&gt;&lt;div style=&quot;text-align: left;&quot;&gt;&lt;span style=&quot;background-color: initial;&quot;&gt;・hogefuge&lt;/span&gt;&lt;/div&gt;&lt;div style=&quot;text-align: left;&quot;&gt;・PG&lt;/div&gt;&lt;/div&gt;" style="rounded=1;whiteSpace=wrap;html=1;align=center;verticalAlign=top;fontFamily=Helvetica;fontSize=16;fontStyle=1;labelBackgroundColor=none;autosize=0;resizable=1;fillColor=#fff2cc;strokeColor=#d6b656;" parent="1" vertex="1">
          <mxGeometry x="-4280" y="760" width="120" height="140" as="geometry" />
        </mxCell>
        <mxCell id="t6yfkODM-43j3eEAp-6J-10" value="&lt;u&gt;タスク&lt;/u&gt;&lt;br&gt;&lt;div&gt;&lt;br&gt;&lt;/div&gt;&lt;div style=&quot;text-align: left;&quot;&gt;・▲▲開発&lt;/div&gt;&lt;div style=&quot;text-align: left;&quot;&gt;・～～～～&lt;/div&gt;&lt;div style=&quot;text-align: left;&quot;&gt;・未着手&lt;/div&gt;&lt;div style=&quot;text-align: left;&quot;&gt;・htts://~~&lt;/div&gt;" style="rounded=1;whiteSpace=wrap;html=1;align=center;verticalAlign=top;fontFamily=Helvetica;fontSize=16;fontStyle=1;labelBackgroundColor=none;autosize=0;resizable=1;fillColor=#fff2cc;strokeColor=#d6b656;" parent="1" vertex="1">
          <mxGeometry x="-4510" y="850" width="151" height="140" as="geometry" />
        </mxCell>
        <mxCell id="t6yfkODM-43j3eEAp-6J-13" style="edgeStyle=elbowEdgeStyle;shape=connector;rounded=0;orthogonalLoop=1;jettySize=auto;html=1;entryX=0.004;entryY=0.447;entryDx=0;entryDy=0;entryPerimeter=0;strokeColor=#FFB570;strokeWidth=2;align=center;verticalAlign=middle;fontFamily=Helvetica;fontSize=12;fontColor=default;fontStyle=1;labelBackgroundColor=default;autosize=0;resizable=1;endArrow=none;endFill=0;" parent="1" source="t6yfkODM-43j3eEAp-6J-1" target="t6yfkODM-43j3eEAp-6J-8" edge="1">
          <mxGeometry relative="1" as="geometry" />
        </mxCell>
        <mxCell id="t6yfkODM-43j3eEAp-6J-14" style="edgeStyle=elbowEdgeStyle;shape=connector;rounded=0;orthogonalLoop=1;jettySize=auto;html=1;entryX=-0.014;entryY=0.616;entryDx=0;entryDy=0;entryPerimeter=0;strokeColor=#FFB570;strokeWidth=2;align=center;verticalAlign=middle;fontFamily=Helvetica;fontSize=12;fontColor=default;fontStyle=1;labelBackgroundColor=default;autosize=0;resizable=1;endArrow=none;endFill=0;" parent="1" source="t6yfkODM-43j3eEAp-6J-1" target="t6yfkODM-43j3eEAp-6J-10" edge="1">
          <mxGeometry relative="1" as="geometry" />
        </mxCell>
        <mxCell id="t6yfkODM-43j3eEAp-6J-17" value="&lt;span style=&quot;font-size: 14px;&quot;&gt;未着手なら&lt;/span&gt;&lt;div&gt;&lt;span style=&quot;font-size: 14px;&quot;&gt;マイルストーン不要&lt;/span&gt;&lt;br&gt;&lt;div style=&quot;font-size: 14px;&quot;&gt;&lt;br&gt;&lt;/div&gt;&lt;/div&gt;" style="rounded=0;whiteSpace=wrap;html=1;align=center;verticalAlign=top;fontFamily=Helvetica;fontSize=12;fontStyle=1;labelBackgroundColor=none;autosize=0;resizable=1;fillColor=#f8cecc;strokeColor=#b85450;" parent="1" vertex="1">
          <mxGeometry x="-4590" y="970" width="130" height="50" as="geometry" />
        </mxCell>
        <mxCell id="t6yfkODM-43j3eEAp-6J-25" style="edgeStyle=orthogonalEdgeStyle;shape=connector;rounded=0;orthogonalLoop=1;jettySize=auto;html=1;entryX=0.5;entryY=1;entryDx=0;entryDy=0;strokeColor=#FFB570;strokeWidth=2;align=center;verticalAlign=middle;fontFamily=Helvetica;fontSize=12;fontColor=default;fontStyle=1;labelBackgroundColor=default;autosize=0;resizable=1;endArrow=none;endFill=0;" parent="1" source="t6yfkODM-43j3eEAp-6J-23" target="t6yfkODM-43j3eEAp-6J-10" edge="1">
          <mxGeometry relative="1" as="geometry" />
        </mxCell>
        <mxCell id="t6yfkODM-43j3eEAp-6J-28" style="edgeStyle=orthogonalEdgeStyle;shape=connector;rounded=0;orthogonalLoop=1;jettySize=auto;html=1;strokeColor=#FFB570;strokeWidth=2;align=center;verticalAlign=middle;fontFamily=Helvetica;fontSize=12;fontColor=default;fontStyle=1;labelBackgroundColor=default;autosize=0;resizable=1;endArrow=none;endFill=0;" parent="1" source="t6yfkODM-43j3eEAp-6J-23" target="t6yfkODM-43j3eEAp-6J-9" edge="1">
          <mxGeometry relative="1" as="geometry">
            <Array as="points">
              <mxPoint x="-4240" y="1150" />
            </Array>
          </mxGeometry>
        </mxCell>
        <mxCell id="t6yfkODM-43j3eEAp-6J-29" style="edgeStyle=orthogonalEdgeStyle;shape=connector;rounded=0;orthogonalLoop=1;jettySize=auto;html=1;entryX=0;entryY=0.5;entryDx=0;entryDy=0;strokeColor=#FFB570;strokeWidth=2;align=center;verticalAlign=middle;fontFamily=Helvetica;fontSize=12;fontColor=default;fontStyle=1;labelBackgroundColor=default;autosize=0;resizable=1;endArrow=none;endFill=0;" parent="1" source="t6yfkODM-43j3eEAp-6J-23" target="t6yfkODM-43j3eEAp-6J-24" edge="1">
          <mxGeometry relative="1" as="geometry" />
        </mxCell>
        <mxCell id="t6yfkODM-43j3eEAp-6J-32" style="edgeStyle=orthogonalEdgeStyle;shape=connector;rounded=0;orthogonalLoop=1;jettySize=auto;html=1;entryX=0;entryY=0.5;entryDx=0;entryDy=0;strokeColor=#FFB570;strokeWidth=2;align=center;verticalAlign=middle;fontFamily=Helvetica;fontSize=12;fontColor=default;fontStyle=1;labelBackgroundColor=default;autosize=0;resizable=1;endArrow=none;endFill=0;" parent="1" source="t6yfkODM-43j3eEAp-6J-23" target="t6yfkODM-43j3eEAp-6J-31" edge="1">
          <mxGeometry relative="1" as="geometry" />
        </mxCell>
        <mxCell id="t6yfkODM-43j3eEAp-6J-23" value="&lt;u&gt;スレッド&lt;/u&gt;&lt;br&gt;&lt;div&gt;&lt;br&gt;&lt;/div&gt;&lt;div style=&quot;text-align: left;&quot;&gt;・2022/10/01 09:30&lt;/div&gt;&lt;div style=&quot;text-align: left;&quot;&gt;・from：田中&lt;/div&gt;&lt;div style=&quot;text-align: left;&quot;&gt;・to：佐藤&lt;/div&gt;&lt;div style=&quot;text-align: left;&quot;&gt;・～～を確認&lt;/div&gt;&lt;div style=&quot;text-align: left;&quot;&gt;・～～は●●でいいですか？&lt;/div&gt;&lt;div style=&quot;text-align: left;&quot;&gt;・フラグ：False&lt;/div&gt;&lt;div style=&quot;text-align: left;&quot;&gt;&lt;br&gt;&lt;/div&gt;" style="rounded=1;whiteSpace=wrap;html=1;align=center;verticalAlign=top;fontFamily=Helvetica;fontSize=16;fontStyle=1;labelBackgroundColor=none;autosize=0;resizable=1;fillColor=#fff2cc;strokeColor=#d6b656;" parent="1" vertex="1">
          <mxGeometry x="-4580" y="1100" width="221" height="180" as="geometry" />
        </mxCell>
        <mxCell id="t6yfkODM-43j3eEAp-6J-24" value="&lt;u&gt;返信&lt;/u&gt;&lt;br&gt;&lt;div&gt;&lt;br&gt;&lt;/div&gt;&lt;div style=&quot;text-align: left;&quot;&gt;・2022/10/01 10:15&lt;/div&gt;&lt;div style=&quot;text-align: left;&quot;&gt;・from：佐藤&lt;/div&gt;&lt;div style=&quot;text-align: left;&quot;&gt;・to：田中&lt;/div&gt;&lt;div style=&quot;text-align: left;&quot;&gt;・●●は検討しましたか？&lt;/div&gt;" style="rounded=1;whiteSpace=wrap;html=1;align=center;verticalAlign=top;fontFamily=Helvetica;fontSize=16;fontStyle=1;labelBackgroundColor=none;autosize=0;resizable=1;fillColor=#fff2cc;strokeColor=#d6b656;arcSize=27;" parent="1" vertex="1">
          <mxGeometry x="-4202" y="1105" width="192" height="170" as="geometry" />
        </mxCell>
        <mxCell id="t6yfkODM-43j3eEAp-6J-22" value="&lt;div style=&quot;font-size: 14px;&quot;&gt;タスクの割り当ては、&lt;/div&gt;&lt;div style=&quot;font-size: 14px;&quot;&gt;PJ参加スタッフから&lt;/div&gt;&lt;div style=&quot;font-size: 14px;&quot;&gt;プルダウン選択&lt;/div&gt;" style="rounded=0;whiteSpace=wrap;html=1;align=center;verticalAlign=top;fontFamily=Helvetica;fontSize=12;fontStyle=1;labelBackgroundColor=none;autosize=0;resizable=1;fillColor=#f8cecc;strokeColor=#b85450;" parent="1" vertex="1">
          <mxGeometry x="-4170" y="870" width="170" height="60" as="geometry" />
        </mxCell>
        <mxCell id="t6yfkODM-43j3eEAp-6J-30" style="edgeStyle=orthogonalEdgeStyle;shape=connector;rounded=0;orthogonalLoop=1;jettySize=auto;html=1;strokeColor=#FFB570;strokeWidth=2;align=center;verticalAlign=middle;fontFamily=Helvetica;fontSize=12;fontColor=default;fontStyle=1;labelBackgroundColor=default;autosize=0;resizable=1;endArrow=none;endFill=0;" parent="1" source="t6yfkODM-43j3eEAp-6J-24" edge="1">
          <mxGeometry relative="1" as="geometry">
            <mxPoint x="-4200" y="898" as="targetPoint" />
            <Array as="points">
              <mxPoint x="-4142" y="1000" />
              <mxPoint x="-4200" y="1000" />
              <mxPoint x="-4200" y="898" />
            </Array>
          </mxGeometry>
        </mxCell>
        <mxCell id="t6yfkODM-43j3eEAp-6J-35" style="edgeStyle=orthogonalEdgeStyle;shape=connector;rounded=0;orthogonalLoop=1;jettySize=auto;html=1;exitX=1;exitY=0.5;exitDx=0;exitDy=0;strokeColor=#FFB570;strokeWidth=2;align=center;verticalAlign=middle;fontFamily=Helvetica;fontSize=12;fontColor=default;fontStyle=1;labelBackgroundColor=default;autosize=0;resizable=1;endArrow=none;endFill=0;" parent="1" source="t6yfkODM-43j3eEAp-6J-31" target="t6yfkODM-43j3eEAp-6J-33" edge="1">
          <mxGeometry relative="1" as="geometry" />
        </mxCell>
        <mxCell id="t6yfkODM-43j3eEAp-6J-37" style="edgeStyle=orthogonalEdgeStyle;shape=connector;rounded=0;orthogonalLoop=1;jettySize=auto;html=1;entryX=0;entryY=0.75;entryDx=0;entryDy=0;strokeColor=#FFB570;strokeWidth=2;align=center;verticalAlign=middle;fontFamily=Helvetica;fontSize=12;fontColor=default;fontStyle=1;labelBackgroundColor=default;autosize=0;resizable=1;endArrow=none;endFill=0;" parent="1" source="t6yfkODM-43j3eEAp-6J-31" target="t6yfkODM-43j3eEAp-6J-24" edge="1">
          <mxGeometry relative="1" as="geometry" />
        </mxCell>
        <mxCell id="t6yfkODM-43j3eEAp-6J-31" value="&lt;u&gt;社員&lt;/u&gt;&lt;div&gt;&lt;u&gt;&lt;br&gt;&lt;/u&gt;&lt;div style=&quot;text-align: left;&quot;&gt;・佐藤&lt;/div&gt;&lt;div style=&quot;text-align: left;&quot;&gt;・sato@~~&lt;/div&gt;&lt;div style=&quot;text-align: left;&quot;&gt;&lt;span style=&quot;background-color: initial;&quot;&gt;・hogefuge&lt;/span&gt;&lt;/div&gt;&lt;div style=&quot;text-align: left;&quot;&gt;・SE&lt;/div&gt;&lt;/div&gt;" style="rounded=1;whiteSpace=wrap;html=1;align=center;verticalAlign=top;fontFamily=Helvetica;fontSize=16;fontStyle=1;labelBackgroundColor=none;autosize=0;resizable=1;fillColor=#fff2cc;strokeColor=#d6b656;" parent="1" vertex="1">
          <mxGeometry x="-4430" y="1315" width="120" height="140" as="geometry" />
        </mxCell>
        <mxCell id="t6yfkODM-43j3eEAp-6J-34" style="edgeStyle=orthogonalEdgeStyle;shape=connector;rounded=0;orthogonalLoop=1;jettySize=auto;html=1;strokeColor=#FFB570;strokeWidth=2;align=center;verticalAlign=middle;fontFamily=Helvetica;fontSize=12;fontColor=default;fontStyle=1;labelBackgroundColor=default;autosize=0;resizable=1;endArrow=none;endFill=0;" parent="1" source="t6yfkODM-43j3eEAp-6J-33" edge="1">
          <mxGeometry relative="1" as="geometry">
            <mxPoint x="-4200" y="910" as="targetPoint" />
            <Array as="points">
              <mxPoint x="-3970" y="1385" />
              <mxPoint x="-3970" y="1000" />
              <mxPoint x="-4200" y="1000" />
            </Array>
          </mxGeometry>
        </mxCell>
        <mxCell id="t6yfkODM-43j3eEAp-6J-36" style="edgeStyle=orthogonalEdgeStyle;shape=connector;rounded=0;orthogonalLoop=1;jettySize=auto;html=1;exitX=0;exitY=0.25;exitDx=0;exitDy=0;entryX=1;entryY=0.5;entryDx=0;entryDy=0;strokeColor=#FFB570;strokeWidth=2;align=center;verticalAlign=middle;fontFamily=Helvetica;fontSize=12;fontColor=default;fontStyle=1;labelBackgroundColor=default;autosize=0;resizable=1;endArrow=none;endFill=0;" parent="1" source="t6yfkODM-43j3eEAp-6J-33" target="t6yfkODM-43j3eEAp-6J-23" edge="1">
          <mxGeometry relative="1" as="geometry" />
        </mxCell>
        <mxCell id="t6yfkODM-43j3eEAp-6J-33" value="&lt;u&gt;返信&lt;/u&gt;&lt;br&gt;&lt;div&gt;&lt;br&gt;&lt;/div&gt;&lt;div style=&quot;text-align: left;&quot;&gt;・2022/10/02 08:00&lt;/div&gt;&lt;div style=&quot;text-align: left;&quot;&gt;&lt;span style=&quot;background-color: initial;&quot;&gt;・from：田中&lt;/span&gt;&lt;/div&gt;&lt;div style=&quot;text-align: left;&quot;&gt;・to：佐藤&lt;/div&gt;&lt;div style=&quot;text-align: left;&quot;&gt;・～～で考えています&lt;/div&gt;" style="rounded=1;whiteSpace=wrap;html=1;align=center;verticalAlign=top;fontFamily=Helvetica;fontSize=16;fontStyle=1;labelBackgroundColor=none;autosize=0;resizable=1;fillColor=#fff2cc;strokeColor=#d6b656;arcSize=27;" parent="1" vertex="1">
          <mxGeometry x="-4202" y="1300" width="192" height="170" as="geometry" />
        </mxCell>
        <mxCell id="rKibX1r8ceTcwP2PQAfH-4" style="edgeStyle=elbowEdgeStyle;shape=connector;rounded=0;orthogonalLoop=1;jettySize=auto;elbow=horizontal;html=1;strokeColor=#FFB570;strokeWidth=2;align=center;verticalAlign=middle;fontFamily=Helvetica;fontSize=12;fontColor=default;fontStyle=1;labelBackgroundColor=default;autosize=0;resizable=1;endArrow=none;endFill=0;" edge="1" parent="1" target="rKibX1r8ceTcwP2PQAfH-7">
          <mxGeometry relative="1" as="geometry">
            <mxPoint x="-4112" y="-45" as="sourcePoint" />
          </mxGeometry>
        </mxCell>
        <mxCell id="rKibX1r8ceTcwP2PQAfH-5" value="" style="edgeStyle=elbowEdgeStyle;shape=connector;rounded=0;orthogonalLoop=1;jettySize=auto;elbow=horizontal;html=1;strokeColor=#FFB570;strokeWidth=2;align=center;verticalAlign=middle;fontFamily=Helvetica;fontSize=12;fontColor=default;fontStyle=1;labelBackgroundColor=default;autosize=0;resizable=1;endArrow=none;endFill=0;" edge="1" parent="1" source="rKibX1r8ceTcwP2PQAfH-7">
          <mxGeometry relative="1" as="geometry">
            <mxPoint x="-4110" y="-45" as="targetPoint" />
          </mxGeometry>
        </mxCell>
        <mxCell id="rKibX1r8ceTcwP2PQAfH-6" value="&lt;font style=&quot;font-size: 16px;&quot;&gt;1&lt;/font&gt;" style="edgeLabel;html=1;align=center;verticalAlign=middle;resizable=0;points=[];fontFamily=Helvetica;fontSize=12;fontColor=default;fontStyle=1;labelBackgroundColor=default;autosize=0;fillColor=none;gradientColor=none;" vertex="1" connectable="0" parent="rKibX1r8ceTcwP2PQAfH-5">
          <mxGeometry x="0.538" y="-3" relative="1" as="geometry">
            <mxPoint as="offset" />
          </mxGeometry>
        </mxCell>
        <mxCell id="rKibX1r8ceTcwP2PQAfH-11" style="edgeStyle=orthogonalEdgeStyle;rounded=0;orthogonalLoop=1;jettySize=auto;html=1;entryX=1;entryY=0.5;entryDx=0;entryDy=0;strokeColor=#FFB570;strokeWidth=2;align=center;verticalAlign=middle;fontFamily=Helvetica;fontSize=12;fontColor=default;fontStyle=1;labelBackgroundColor=default;autosize=0;resizable=1;elbow=horizontal;endArrow=none;endFill=0;" edge="1" parent="1" source="rKibX1r8ceTcwP2PQAfH-7" target="eYVz0RjQgJg_nyNnM9km-20">
          <mxGeometry relative="1" as="geometry">
            <Array as="points">
              <mxPoint x="-3895" y="210" />
            </Array>
          </mxGeometry>
        </mxCell>
        <mxCell id="rKibX1r8ceTcwP2PQAfH-14" value="&lt;span style=&quot;font-size: 16px;&quot;&gt;&lt;b&gt;0..n&lt;/b&gt;&lt;/span&gt;" style="edgeLabel;html=1;align=center;verticalAlign=middle;resizable=0;points=[];" vertex="1" connectable="0" parent="rKibX1r8ceTcwP2PQAfH-11">
          <mxGeometry x="-0.8369" relative="1" as="geometry">
            <mxPoint as="offset" />
          </mxGeometry>
        </mxCell>
        <mxCell id="rKibX1r8ceTcwP2PQAfH-15" value="&lt;span style=&quot;font-size: 16px;&quot;&gt;1&lt;/span&gt;" style="edgeLabel;html=1;align=center;verticalAlign=middle;resizable=0;points=[];fontStyle=1" vertex="1" connectable="0" parent="rKibX1r8ceTcwP2PQAfH-11">
          <mxGeometry x="0.7202" y="-1" relative="1" as="geometry">
            <mxPoint as="offset" />
          </mxGeometry>
        </mxCell>
        <mxCell id="rKibX1r8ceTcwP2PQAfH-7" value="&lt;u&gt;既読管理&lt;/u&gt;&lt;br&gt;&lt;div&gt;&lt;br&gt;&lt;/div&gt;&lt;div style=&quot;text-align: left;&quot;&gt;・既読日時&lt;/div&gt;&lt;div style=&quot;text-align: left;&quot;&gt;・フラグ&lt;/div&gt;" style="rounded=1;whiteSpace=wrap;html=1;align=center;verticalAlign=top;fontFamily=Helvetica;fontSize=16;fontStyle=1;labelBackgroundColor=none;autosize=0;resizable=1;fillColor=#fff2cc;strokeColor=#d6b656;arcSize=27;" vertex="1" parent="1">
          <mxGeometry x="-3955" y="-130" width="120" height="170" as="geometry" />
        </mxCell>
        <mxCell id="rKibX1r8ceTcwP2PQAfH-8" style="shape=connector;rounded=0;orthogonalLoop=1;jettySize=auto;elbow=horizontal;html=1;strokeColor=#FFB570;strokeWidth=2;align=center;verticalAlign=middle;fontFamily=Helvetica;fontSize=12;fontColor=default;fontStyle=1;labelBackgroundColor=default;autosize=0;resizable=1;endArrow=none;endFill=0;entryX=1;entryY=0.25;entryDx=0;entryDy=0;exitX=0.5;exitY=1;exitDx=0;exitDy=0;" edge="1" parent="1" source="rKibX1r8ceTcwP2PQAfH-9" target="rKibX1r8ceTcwP2PQAfH-7">
          <mxGeometry relative="1" as="geometry">
            <mxPoint x="-3828" y="-80" as="targetPoint" />
          </mxGeometry>
        </mxCell>
        <mxCell id="rKibX1r8ceTcwP2PQAfH-9" value="&lt;span style=&quot;font-size: 14px;&quot;&gt;宛先指定のある返信だけ、既読管理する&lt;/span&gt;&lt;div&gt;&lt;div style=&quot;font-size: 14px;&quot;&gt;&lt;br&gt;&lt;/div&gt;&lt;/div&gt;" style="rounded=0;whiteSpace=wrap;html=1;align=left;verticalAlign=top;fontFamily=Helvetica;fontSize=12;fontStyle=1;labelBackgroundColor=none;autosize=0;resizable=1;fillColor=#f8cecc;strokeColor=#b85450;" vertex="1" parent="1">
          <mxGeometry x="-3873" y="-200" width="170" height="40" as="geometry" />
        </mxCell>
        <mxCell id="rKibX1r8ceTcwP2PQAfH-10" value="&lt;font style=&quot;font-size: 16px;&quot;&gt;0..1&lt;/font&gt;" style="text;html=1;align=center;verticalAlign=middle;resizable=1;points=[];autosize=0;strokeColor=none;fillColor=none;fontFamily=Helvetica;fontSize=12;fontColor=default;fontStyle=1;labelBackgroundColor=default;" vertex="1" parent="1">
          <mxGeometry x="-4023" y="-58" width="40" height="26" as="geometry" />
        </mxCell>
      </root>
    </mxGraphModel>
  </diagram>
</mxfile>
